<?xml version="1.0" encoding="UTF-8"?>
<svg id="Layer_1" data-name="Layer 1" xmlns="http://www.w3.org/2000/svg" viewBox="0 0 200 97.82">
  <defs>
    
  </defs>
  <path fill="#0d2f69" d="M11.09,21.37c3.17-.28,7.61-.9,12.4-2.17.52-.14.79-.17,1-.17.55,0,.86.34.86.93v28.14c0,2.82.38,3.13,3,3.72.76.17.96.45.96.9s-.21.76-.93.76H11.37c-.59,0-.9-.28-.9-.76s.21-.72.83-.86c3.55-.79,3.93-1.1,3.93-4.79v-17.15c0-4.06-.93-5.17-4.2-6.72-.65-.31-.9-.59-.9-1.03,0-.55.38-.76.96-.79ZM28.73,25.19c2.62-3.75,5.41-6.3,9.68-6.3,4.55,0,7.68,3.24,7.68,10.12v19.08c0,2.82.38,3.13,3,3.72.76.17.96.45.96.9s-.21.76-.93.76h-16.19c-.72,0-.93-.31-.93-.76s.21-.72.96-.9c2.62-.59,3-.9,3-3.72v-17.32c0-3.58-1.38-4.86-3.58-4.86-1.03,0-1.83.17-2.86.59-.17.07-.34.1-.48.1-.41,0-.65-.31-.65-.62,0-.24.1-.45.34-.79ZM49.46,25.19c2.62-3.75,5.41-6.3,9.68-6.3,4.55,0,7.68,3.24,7.68,10.12v18.05c0,3.68.38,3.99,3.93,4.79.62.14.83.38.83.86s-.31.76-.9.76h-17.01c-.72,0-.93-.31-.93-.76s.21-.72.96-.9c2.62-.59,3-.9,3-3.72v-17.32c0-3.58-1.38-4.86-3.58-4.86-1.03,0-1.83.17-2.86.59-.17.07-.34.1-.48.1-.41,0-.65-.31-.65-.62,0-.24.1-.45.34-.79ZM70.88,19.99h19.6c.72,0,.96.31.96.79,0,.41-.21.72-.9.83-3.79.55-4.61,1.03-4.61,2.03,0,.48.21,1.21.55,1.96l8.13,17.18c.79,1.69.93,2.51.07,4.48l-2.48,5.75c-.28.65-.69,1.03-1.55,1.03s-1.27-.38-1.58-1.03l-13.67-27.93c-.62-1.24-1.1-1.96-1.69-2.45-.79-.62-1.65-.83-2.89-1.03-.59-.1-.83-.38-.83-.86s.31-.76.9-.76ZM97.12,19.99h11.43c.65,0,1,.28,1,.76s-.21.72-.86.86c-2.72.59-3.68,1.31-5.1,4.68l-5.61,13.26c-.1.28-.24.34-.45.34-.59,0-1.21-.83-1.21-1.62,0-.28.07-.52.17-.79l4.82-11.74c.34-.83.52-1.48.52-2,0-1.24-1.24-1.58-4.79-2.14-.65-.1-.86-.41-.86-.83,0-.48.21-.79.93-.79ZM124.33,35.14c.76-.28,1.83-.59,2.38-.59.59,0,.79.31.79.69,0,.31-.14.62-.76.96-5.27,2.93-7.16,5.06-7.16,8.16s1.96,4.2,4.13,4.2c.9,0,1.93-.17,2.96-.76.62-.34,1.21-.07,1.21.52,0,.52-.55,1.17-1.17,1.83-2.48,2.65-5.68,4.41-9.33,4.41-4.41,0-7.65-2.55-7.65-6.65,0-5.72,6.37-9.78,14.6-12.78ZM115.86,24.05c2.72,0,4.61,1.83,4.61,4.61s-1.89,4.61-4.61,4.61-4.61-1.83-4.61-4.61,1.89-4.61,4.61-4.61ZM129.87,18.89c6.82,0,10.5,3.62,10.5,11.23v15.84c0,1.79.21,2.69,1.52,2.69s2.24-1.07,3.31-3.03c.21-.38.41-.59.79-.59.76,0,.9.93.69,1.72-1.38,5.23-4.61,7.71-9.16,7.71-4.86,0-7.27-2.48-7.27-8.23v-15.26c0-6.47-2.07-8.27-5.51-8.27-.96,0-1.72.17-2.45.41-.41.14-.62.24-.9.24-.48,0-.76-.28-.76-.69,0-.28.14-.52.41-.76,2.31-1.89,5.2-3.03,8.82-3.03Z"></path>
  <path fill="#0d2f69" d="M142.85,23.01c0-.59.13-1.11.4-1.57.26-.45.63-.81,1.09-1.07s1-.39,1.6-.39,1.14.13,1.6.39.82.61,1.09,1.07c.26.45.4.98.4,1.57s-.13,1.11-.4,1.57c-.26.45-.63.81-1.09,1.07-.46.26-.99.39-1.6.39s-1.14-.13-1.6-.39c-.46-.26-.83-.61-1.09-1.07-.26-.45-.4-.98-.4-1.57ZM143.62,21.66c-.22.39-.34.85-.34,1.36s.11.96.34,1.36.54.7.93.92c.4.22.86.33,1.37.33s.97-.11,1.37-.33c.4-.22.71-.53.93-.92.22-.39.34-.85.34-1.36s-.11-.96-.34-1.36c-.22-.39-.54-.7-.93-.92-.4-.22-.86-.33-1.37-.33s-.98.11-1.37.33c-.4.22-.71.53-.93.92ZM144.3,24.32c0-.07.04-.11.11-.12.13-.03.22-.06.25-.11.03-.05.05-.17.05-.34v-1.59c0-.18-.02-.29-.05-.34-.03-.05-.12-.09-.25-.12-.07-.02-.11-.06-.11-.12s.04-.1.11-.1h1.52c.88,0,1.31.23,1.31.7,0,.18-.07.34-.21.47-.14.13-.37.23-.7.29.23.03.41.08.54.17.09.06.17.14.23.24.06.1.12.25.19.45.05.16.09.25.11.29.02.03.06.05.1.05.03,0,.07,0,.12-.02.03-.01.06-.02.08-.02.06,0,.09.04.09.11,0,.03-.01.06-.04.09-.06.06-.16.1-.29.13s-.27.04-.39.04c-.32,0-.53-.11-.64-.32-.04-.07-.07-.16-.09-.25-.03-.09-.05-.18-.08-.28-.02-.1-.05-.19-.08-.27-.03-.08-.06-.14-.09-.17-.05-.06-.16-.1-.31-.1h-.15v.65c0,.18.02.29.05.34.03.05.12.09.25.12.07.02.11.06.11.12s-.04.1-.11.1h-1.51c-.07,0-.11-.03-.11-.1ZM145.62,22v.82h.12c.24,0,.39-.05.47-.15.07-.1.11-.23.11-.4,0-.2-.04-.35-.13-.44-.09-.09-.18-.13-.29-.13-.18,0-.28.1-.28.3Z"></path>
</svg>