<?xml version="1.0" encoding="UTF-8"?>
<svg id="Layer_1" data-name="Layer 1" xmlns="http://www.w3.org/2000/svg" viewBox="0 0 200 97.82">
  <defs>
    
  </defs>
  <g>
    <path fill="#5acf95" d="M12.3,73.89c0,.27.01.47.04.6.03.13.08.24.15.32.09.09.23.16.44.21.21.05.47.1.77.16.17.03.26.1.26.21,0,.11-.07.17-.22.17h-3.23c-.15,0-.22-.06-.22-.17,0-.1.09-.17.26-.21.26-.05.49-.1.66-.16s.3-.13.38-.21c.08-.08.13-.19.15-.32.02-.13.03-.33.03-.6v-6.47c0-.4-.02-.7-.07-.9-.05-.2-.16-.34-.33-.42-.17-.09-.45-.17-.84-.24-.17-.03-.26-.1-.26-.21,0-.11.07-.17.22-.17h3.32c.37,0,.61.16.75.5l2.59,6.22,2.49-6.22c.07-.17.15-.29.26-.37.11-.08.26-.12.47-.12h3.21c.15,0,.22.06.22.17,0,.1-.08.17-.25.21-.38.07-.66.15-.84.24s-.29.23-.33.42c-.05.2-.07.5-.07.9v6.2c0,.4.02.7.07.9.05.2.16.34.33.42s.45.16.84.24c.17.03.25.1.25.21,0,.11-.07.17-.22.17h-5.06c-.15,0-.22-.06-.22-.17,0-.1.08-.17.26-.21.39-.08.67-.16.84-.24.17-.08.28-.23.33-.42s.07-.5.07-.9v-6.64l-3.42,8.54c-.05.14-.15.21-.29.21s-.23-.07-.29-.2l-3.54-8.51v6.88Z"></path>
    <path fill="#5acf95" d="M24.32,75.39c0-.09.06-.15.17-.18.25-.06.43-.11.54-.17.11-.05.19-.14.22-.26.03-.12.05-.31.05-.56v-3.53c0-.42-.06-.72-.18-.89-.12-.17-.35-.34-.68-.5-.12-.06-.18-.13-.18-.21,0-.1.07-.15.2-.16.5-.03.96-.08,1.39-.15.43-.07.88-.17,1.35-.29.09-.02.16-.04.2-.04.12,0,.18.06.18.19v5.58c0,.25.02.44.05.56s.11.21.22.26c.12.05.29.11.53.17.11.02.17.08.17.18,0,.1-.06.16-.18.16h-3.86c-.12,0-.18-.05-.18-.16ZM25.07,66.33c0-.36.12-.66.36-.9.24-.24.55-.36.92-.36s.68.12.92.36c.24.24.35.54.35.9s-.12.66-.35.9c-.24.24-.54.36-.92.36s-.68-.12-.92-.36c-.24-.24-.36-.54-.36-.9Z"></path>
    <path fill="#5acf95" d="M28.87,75.39c0-.09.06-.15.17-.18.25-.06.43-.11.54-.17.11-.05.19-.14.22-.26.03-.12.05-.31.05-.56v-3.53c0-.42-.06-.72-.18-.89-.12-.17-.35-.34-.68-.5-.12-.06-.18-.13-.18-.21,0-.1.07-.15.2-.16.5-.03.95-.08,1.37-.15.42-.07.87-.17,1.33-.29.09-.02.16-.04.2-.04.12,0,.18.06.18.19v1.5c.3-.56.71-.99,1.21-1.29.51-.3,1.02-.45,1.54-.45.59,0,1.06.19,1.39.56.34.38.51.89.51,1.54v3.72c0,.25.02.44.05.56.03.12.11.21.22.26.12.05.29.11.54.17.11.02.17.08.17.18,0,.1-.06.16-.18.16h-3.74c-.13,0-.19-.05-.19-.16,0-.09.06-.15.18-.18.31-.07.5-.14.58-.23.08-.09.12-.28.12-.58v-3.59c0-.45-.07-.77-.21-.95s-.37-.28-.69-.28c-.29,0-.54.09-.76.26-.22.17-.39.39-.51.65s-.18.53-.18.81v3.1c0,.3.04.49.12.58s.27.16.57.23c.12.02.18.08.18.18,0,.1-.06.16-.19.16h-3.74c-.12,0-.18-.05-.18-.16Z"></path>
    <path fill="#5acf95" d="M38.24,72.13c0-.74.15-1.39.46-1.95s.73-1,1.27-1.31c.54-.31,1.15-.47,1.84-.47.57,0,1.06.1,1.47.29s.75.43,1.01.72.45.59.57.89c.12.31.18.57.18.79,0,.14-.09.21-.26.21h-4.56c.06.82.31,1.48.75,1.96.44.49,1.04.73,1.8.73.53,0,.99-.11,1.38-.34.39-.23.7-.53.93-.89.04-.07.09-.1.15-.1.1,0,.15.05.15.16,0,.04-.02.11-.06.21-.34.84-.82,1.51-1.46,2.01s-1.38.75-2.23.75c-.68,0-1.27-.16-1.78-.47s-.91-.74-1.2-1.29c-.29-.55-.43-1.18-.43-1.88ZM42.34,69.43c-.19-.36-.48-.54-.88-.54-.42,0-.73.18-.93.53s-.3.83-.31,1.44h2.48c-.05-.59-.17-1.07-.36-1.43Z"></path>
    <path fill="#5acf95" d="M45.91,75.39c0-.09.06-.15.17-.18.25-.06.43-.11.54-.17.11-.05.19-.14.22-.26.03-.12.05-.31.05-.56v-3.53c0-.42-.06-.72-.18-.89-.12-.17-.35-.34-.68-.5-.12-.06-.18-.13-.18-.21,0-.1.07-.15.2-.16.5-.03.95-.08,1.37-.15.42-.07.87-.17,1.33-.29.09-.02.16-.04.2-.04.12,0,.18.06.18.19v1.77c.22-.65.53-1.14.93-1.48.4-.34.8-.52,1.22-.52.31,0,.56.08.75.25.19.16.29.39.29.69,0,.34-.1.62-.29.83s-.44.31-.75.31c-.23,0-.48-.08-.74-.24-.21-.13-.4-.2-.57-.2-.28,0-.49.15-.62.46-.13.31-.19.72-.19,1.24v2.2c0,.26,0,.44.03.54.02.11.06.2.14.27.09.09.25.17.47.24s.49.13.78.18c.13.02.2.09.2.19,0,.11-.06.17-.19.17h-4.49c-.12,0-.18-.05-.18-.16Z"></path>
    <path fill="#5acf95" d="M52.57,68.81c0-.1.06-.15.18-.15h4.37c.13,0,.19.05.19.16,0,.09-.06.15-.18.17-.39.06-.65.12-.78.19-.13.06-.2.15-.2.27,0,.07.03.16.08.28l1.64,3.35,1.46-3.23c.08-.17.12-.31.12-.42,0-.12-.07-.21-.22-.26s-.41-.11-.78-.17c-.12-.02-.18-.08-.18-.17,0-.11.06-.16.19-.16h2.37c.12,0,.18.05.18.16s-.06.16-.17.18c-.29.03-.5.11-.62.24s-.27.37-.43.72l-2.5,5.5c-.03.07-.07.12-.12.16-.04.04-.11.06-.2.06s-.16-.02-.2-.06c-.05-.04-.09-.09-.12-.16l-2.98-5.75c-.14-.26-.25-.42-.35-.5-.08-.07-.17-.11-.26-.14s-.21-.05-.33-.07c-.11-.02-.17-.08-.17-.18Z"></path>
    <path fill="#5acf95" d="M61.05,74.34c0-.34.1-.64.28-.9s.51-.52.96-.78c.45-.26,1.07-.56,1.86-.9l1.16-.5c0-.74-.14-1.28-.39-1.61-.26-.33-.64-.49-1.15-.49-.37,0-.66.04-.87.13-.21.08-.32.18-.32.28,0,.06.06.14.17.22.29.23.44.5.44.82s-.1.55-.3.69c-.2.14-.41.21-.64.21-.29,0-.52-.09-.7-.28s-.27-.43-.27-.73c0-.36.11-.67.34-.93.22-.26.51-.48.87-.65.35-.17.73-.3,1.14-.39.41-.08.79-.13,1.15-.13.97,0,1.68.19,2.11.59.43.39.65,1.02.65,1.88v3.19c0,.19.02.32.06.42.04.09.12.14.26.14s.26-.07.37-.21c.11-.14.23-.33.35-.57.03-.07.08-.1.13-.1.09,0,.14.05.14.16,0,.03,0,.07-.01.11-.15.59-.38,1.02-.69,1.3-.31.28-.73.42-1.26.42-.48,0-.86-.12-1.13-.35s-.45-.62-.53-1.18c-.28.55-.64.95-1.09,1.2-.45.24-.94.37-1.48.37-.48,0-.87-.12-1.17-.38s-.45-.6-.45-1.06ZM63.28,73.58c0,.31.07.56.21.74s.33.27.57.27c.3,0,.58-.17.85-.51s.41-.85.41-1.53v-.82l-.92.43c-.38.18-.66.37-.84.58-.18.21-.28.49-.28.84Z"></path>
    <path fill="#5acf95" d="M71.72,65.65c0-.11.07-.17.22-.17h5.37c.16,0,.23.06.23.18,0,.06-.02.1-.05.13-.03.03-.11.05-.23.08l-.82.15c-.19.03-.32.08-.4.15-.08.07-.11.15-.11.26,0,.12.05.29.14.5l2.46,5.61,2.13-5.29c.15-.37.22-.63.22-.79,0-.14-.05-.24-.14-.3s-.25-.12-.47-.15l-.75-.14c-.12-.02-.2-.05-.23-.08-.04-.03-.05-.07-.05-.14,0-.12.08-.18.23-.18h3.27c.15,0,.22.05.22.17s-.09.18-.26.21c-.3.05-.53.11-.7.2s-.31.21-.41.38c-.11.17-.22.39-.34.68l-3.38,8.38c-.06.15-.16.22-.32.22s-.27-.07-.34-.21l-4.02-8.91c-.11-.24-.24-.41-.41-.5-.16-.09-.43-.17-.8-.24-.17-.03-.26-.1-.26-.21Z"></path>
    <path fill="#5acf95" d="M82.73,75.39c0-.09.06-.15.17-.18.25-.06.43-.11.54-.17.11-.05.19-.14.22-.26.03-.12.05-.31.05-.56v-3.53c0-.42-.06-.72-.18-.89-.12-.17-.35-.34-.68-.5-.12-.06-.18-.13-.18-.21,0-.1.07-.15.2-.16.5-.03.96-.08,1.39-.15.43-.07.88-.17,1.35-.29.09-.02.16-.04.2-.04.12,0,.18.06.18.19v5.58c0,.25.02.44.05.56s.11.21.22.26c.12.05.29.11.53.17.11.02.17.08.17.18,0,.1-.06.16-.18.16h-3.86c-.12,0-.18-.05-.18-.16ZM83.48,66.33c0-.36.12-.66.36-.9.24-.24.55-.36.92-.36s.68.12.92.36c.24.24.35.54.35.9s-.12.66-.35.9c-.24.24-.54.36-.92.36s-.68-.12-.92-.36c-.24-.24-.36-.54-.36-.9Z"></path>
    <path fill="#5acf95" d="M87.28,75.39c0-.09.06-.15.17-.18.25-.06.43-.11.54-.17.11-.05.19-.14.22-.26.03-.12.05-.31.05-.56v-3.53c0-.42-.06-.72-.18-.89-.12-.17-.35-.34-.68-.5-.12-.06-.18-.13-.18-.21,0-.1.07-.15.2-.16.5-.03.95-.08,1.37-.15.42-.07.87-.17,1.33-.29.09-.02.16-.04.2-.04.12,0,.18.06.18.19v1.77c.22-.65.53-1.14.93-1.48.4-.34.8-.52,1.22-.52.31,0,.56.08.75.25.19.16.29.39.29.69,0,.34-.1.62-.29.83s-.44.31-.75.31c-.23,0-.48-.08-.74-.24-.21-.13-.4-.2-.57-.2-.28,0-.49.15-.62.46-.13.31-.19.72-.19,1.24v2.2c0,.26,0,.44.03.54.02.11.06.2.14.27.09.09.25.17.47.24s.49.13.78.18c.13.02.2.09.2.19,0,.11-.06.17-.19.17h-4.49c-.12,0-.18-.05-.18-.16Z"></path>
    <path fill="#5acf95" d="M95.04,73.47v-4.35h-.67c-.13,0-.2-.05-.2-.16,0-.08.05-.16.16-.25.34-.26.63-.52.9-.76s.52-.51.77-.8.52-.63.81-1.02c.09-.12.18-.18.28-.18.15,0,.22.08.22.25v2.47h1.87c.14,0,.2.08.2.23,0,.16-.07.24-.2.24h-1.87v3.97c0,.53.08.9.24,1.11.16.21.39.32.69.32.16,0,.34-.03.52-.08s.37-.15.57-.28c.04-.03.08-.04.12-.04.08,0,.11.04.11.12,0,.05-.02.1-.06.17-.26.42-.6.75-1.03.99s-.89.37-1.39.37c-.63,0-1.13-.19-1.5-.56s-.55-.95-.55-1.73Z"></path>
    <path fill="#5acf95" d="M100.76,73.6v-2.91c0-.42-.06-.72-.18-.89-.12-.17-.35-.34-.68-.5-.12-.06-.18-.13-.18-.21,0-.1.07-.15.2-.16.5-.03.96-.08,1.39-.15.43-.07.88-.17,1.35-.29.09-.02.16-.04.2-.04.12,0,.18.06.18.19v4.71c0,.48.07.8.22.97.15.17.36.26.63.26.42,0,.76-.16,1.02-.48.26-.32.39-.72.39-1.22v-2.2c0-.4-.06-.67-.18-.83-.12-.16-.35-.32-.68-.48-.12-.06-.19-.13-.19-.21,0-.09.07-.15.2-.16.51-.05.97-.12,1.39-.21.42-.08.87-.19,1.34-.31.09-.02.16-.04.21-.04.12,0,.18.06.18.19v4.74c0,.3.01.52.03.67.02.15.05.27.1.35.05.08.12.15.22.21.1.06.25.13.45.21.12.05.18.12.18.22s-.07.15-.2.16c-.5.03-.94.08-1.34.15s-.83.16-1.3.29c-.09.02-.16.04-.2.04-.12,0-.18-.06-.18-.19v-1.34c-.27.47-.65.86-1.13,1.17-.48.3-.99.46-1.54.46s-1-.18-1.36-.53-.53-.9-.53-1.64Z"></path>
    <path fill="#5acf95" d="M109.14,74.34c0-.34.1-.64.28-.9s.51-.52.96-.78c.45-.26,1.07-.56,1.86-.9l1.16-.5c0-.74-.14-1.28-.39-1.61-.26-.33-.64-.49-1.15-.49-.37,0-.66.04-.87.13-.21.08-.32.18-.32.28,0,.06.06.14.17.22.29.23.44.5.44.82s-.1.55-.3.69c-.2.14-.41.21-.64.21-.29,0-.52-.09-.7-.28s-.27-.43-.27-.73c0-.36.11-.67.34-.93.22-.26.51-.48.87-.65.35-.17.73-.3,1.14-.39.41-.08.79-.13,1.15-.13.97,0,1.68.19,2.11.59.43.39.65,1.02.65,1.88v3.19c0,.19.02.32.06.42.04.09.12.14.26.14s.26-.07.37-.21c.11-.14.23-.33.35-.57.03-.07.08-.1.13-.1.09,0,.14.05.14.16,0,.03,0,.07-.01.11-.15.59-.38,1.02-.69,1.3-.31.28-.73.42-1.26.42-.48,0-.86-.12-1.13-.35s-.45-.62-.53-1.18c-.28.55-.64.95-1.09,1.2-.45.24-.94.37-1.48.37-.48,0-.87-.12-1.17-.38s-.45-.6-.45-1.06ZM111.37,73.58c0,.31.07.56.21.74s.33.27.57.27c.3,0,.58-.17.85-.51s.41-.85.41-1.53v-.82l-.92.43c-.38.18-.66.37-.84.58-.18.21-.28.49-.28.84Z"></path>
    <path fill="#5acf95" d="M117.11,75.39c0-.09.06-.15.17-.18.25-.06.43-.11.54-.17.11-.05.19-.14.22-.26s.05-.31.05-.56v-7.33c0-.42-.06-.72-.18-.89-.12-.17-.35-.34-.68-.5-.12-.06-.18-.13-.18-.21,0-.1.07-.15.2-.16.5-.03.96-.08,1.39-.15.43-.07.88-.17,1.35-.3.09-.02.16-.03.2-.03.12,0,.18.06.18.19v9.38c0,.25.02.44.05.56s.11.21.22.26c.12.05.3.11.54.17.11.02.17.08.17.18,0,.1-.06.16-.18.16h-3.86c-.12,0-.18-.05-.18-.16Z"></path>
    <path fill="#5acf95" d="M124.26,75.38c0-.11.08-.18.26-.21.3-.05.54-.12.72-.2.18-.08.32-.2.43-.37.11-.16.21-.4.31-.69l2.49-7.29c.03-.1.05-.19.05-.26,0-.08-.02-.16-.07-.22-.05-.06-.14-.11-.28-.14l-.64-.13c-.17-.03-.26-.1-.26-.21,0-.11.07-.17.22-.17h2.47c.36,0,.62.05.76.14.14.1.26.27.35.52l3.13,8.14c.12.3.28.51.47.61.2.11.45.19.77.27.17.04.26.11.26.22s-.07.17-.22.17h-5.21c-.16,0-.23-.06-.23-.18,0-.06.02-.1.05-.13.04-.03.11-.06.23-.07l.82-.15c.19-.04.33-.08.41-.14.08-.05.11-.13.11-.22,0-.1-.05-.29-.15-.56l-.67-1.83h-3.76l-.51,1.52c-.11.32-.16.58-.16.77,0,.16.04.26.13.33.09.06.23.11.42.15l.75.14c.12.02.19.04.23.07.04.03.05.08.05.14,0,.12-.08.18-.23.18h-3.26c-.15,0-.22-.05-.22-.17ZM128.87,66.9l-1.65,4.89h3.43l-1.79-4.89Z"></path>
    <path fill="#5acf95" d="M135.66,72.23c0-.75.17-1.41.51-1.98.34-.57.8-1.03,1.4-1.35s1.28-.49,2.05-.49c.51,0,.96.07,1.36.22.39.14.71.34.93.6.22.25.34.54.34.87,0,.54-.27.81-.81.81-.26,0-.47-.07-.62-.21-.16-.14-.31-.34-.46-.6-.19-.33-.36-.57-.49-.74s-.26-.29-.38-.35-.27-.09-.43-.09c-.43,0-.76.19-1,.58-.24.39-.36.92-.36,1.6,0,.9.21,1.63.64,2.18.42.56.99.84,1.72.84.45,0,.88-.14,1.27-.41.39-.27.73-.7,1.03-1.29.06-.11.12-.16.18-.16.1,0,.14.05.14.15,0,.08-.02.21-.07.39-.25.95-.69,1.69-1.32,2.21s-1.39.78-2.25.78c-.66,0-1.24-.15-1.74-.46s-.9-.72-1.18-1.26c-.29-.53-.43-1.14-.43-1.83Z"></path>
    <path fill="#5acf95" d="M143.49,74.34c0-.34.1-.64.28-.9s.51-.52.96-.78c.45-.26,1.07-.56,1.86-.9l1.16-.5c0-.74-.14-1.28-.39-1.61-.26-.33-.64-.49-1.15-.49-.37,0-.66.04-.87.13-.21.08-.32.18-.32.28,0,.06.06.14.17.22.29.23.44.5.44.82s-.1.55-.3.69c-.2.14-.41.21-.64.21-.29,0-.52-.09-.7-.28s-.27-.43-.27-.73c0-.36.11-.67.34-.93.22-.26.51-.48.87-.65.35-.17.73-.3,1.14-.39.41-.08.79-.13,1.15-.13.97,0,1.68.19,2.11.59.43.39.65,1.02.65,1.88v3.19c0,.19.02.32.06.42.04.09.12.14.26.14s.26-.07.37-.21c.11-.14.23-.33.35-.57.03-.07.08-.1.13-.1.09,0,.14.05.14.16,0,.03,0,.07-.01.11-.15.59-.38,1.02-.69,1.3-.31.28-.73.42-1.26.42-.48,0-.86-.12-1.13-.35s-.45-.62-.53-1.18c-.28.55-.64.95-1.09,1.2-.45.24-.94.37-1.48.37-.48,0-.87-.12-1.17-.38s-.45-.6-.45-1.06ZM145.71,73.58c0,.31.07.56.21.74s.33.27.57.27c.3,0,.58-.17.85-.51s.41-.85.41-1.53v-.82l-.92.43c-.38.18-.66.37-.84.58-.18.21-.28.49-.28.84Z"></path>
    <path fill="#5acf95" d="M151.76,72.26c0-.74.16-1.4.48-1.99.32-.58.76-1.04,1.33-1.37.56-.34,1.21-.5,1.94-.5.34,0,.63.03.88.08.25.05.47.14.66.24v-1.83c0-.42-.06-.72-.18-.89-.12-.17-.35-.34-.68-.5-.12-.06-.19-.13-.19-.21,0-.1.07-.15.2-.16.5-.03.96-.08,1.39-.15.43-.07.88-.17,1.35-.3.09-.02.16-.03.21-.03.12,0,.18.06.18.19v8.54c0,.3,0,.52.03.67s.05.27.1.35c.05.08.12.15.22.21.1.06.25.13.45.21.12.05.18.12.18.22s-.07.15-.2.16c-.39.02-.8.07-1.25.15-.45.08-.87.18-1.26.28-.09.02-.16.04-.21.04-.12,0-.18-.06-.18-.19v-1.45c-.21.54-.52.96-.95,1.27-.42.31-.95.46-1.57.46-.51,0-.98-.14-1.43-.42-.45-.28-.81-.69-1.09-1.22s-.41-1.15-.41-1.87ZM154.13,71.35c0,1.03.15,1.85.46,2.46.31.61.72.91,1.23.91.84,0,1.25-.83,1.25-2.5,0-1.02-.15-1.83-.46-2.44-.3-.61-.72-.91-1.24-.91-.84,0-1.25.82-1.25,2.47Z"></path>
    <path fill="#5acf95" d="M160.88,72.13c0-.74.15-1.39.46-1.95s.73-1,1.27-1.31c.54-.31,1.15-.47,1.84-.47.57,0,1.06.1,1.47.29s.75.43,1.01.72.45.59.57.89c.12.31.18.57.18.79,0,.14-.09.21-.26.21h-4.56c.06.82.31,1.48.75,1.96.44.49,1.04.73,1.8.73.53,0,.99-.11,1.38-.34.39-.23.7-.53.93-.89.04-.07.09-.1.15-.1.1,0,.15.05.15.16,0,.04-.02.11-.06.21-.34.84-.82,1.51-1.46,2.01s-1.38.75-2.23.75c-.68,0-1.27-.16-1.78-.47s-.91-.74-1.2-1.29c-.29-.55-.43-1.18-.43-1.88ZM164.98,69.43c-.19-.36-.48-.54-.88-.54-.42,0-.73.18-.93.53s-.3.83-.31,1.44h2.48c-.05-.59-.17-1.07-.36-1.43Z"></path>
    <path fill="#5acf95" d="M168.54,75.39c0-.09.06-.15.17-.18.25-.06.43-.11.54-.17.11-.05.19-.14.22-.26.03-.12.05-.31.05-.56v-3.53c0-.42-.06-.72-.18-.89-.12-.17-.35-.34-.68-.5-.12-.06-.18-.13-.18-.21,0-.1.07-.15.2-.16.5-.03.95-.08,1.37-.15.42-.07.87-.17,1.33-.29.09-.02.16-.04.2-.04.12,0,.18.06.18.19v1.47c.31-.54.71-.96,1.22-1.27s1.02-.46,1.54-.46.91.15,1.23.44c.32.29.51.71.56,1.24.28-.51.67-.91,1.17-1.22s1-.46,1.53-.46c.57,0,1.02.19,1.36.56.33.38.5.89.5,1.54v3.72c0,.25.02.44.05.56.03.12.11.21.22.26.12.05.29.11.53.17.11.02.17.08.17.18,0,.1-.06.16-.18.16h-3.71c-.13,0-.19-.05-.19-.16,0-.09.07-.16.2-.18.28-.07.46-.14.53-.22.07-.08.11-.26.11-.55v-3.69c0-.42-.07-.72-.2-.9s-.35-.26-.64-.26c-.27,0-.51.08-.73.24s-.38.37-.51.63c-.12.26-.19.53-.19.82v3.16c0,.29.04.47.11.55.07.08.25.15.53.22.13.03.2.09.2.18,0,.1-.06.16-.19.16h-3.56c-.13,0-.19-.05-.19-.16,0-.09.07-.16.2-.18.28-.07.45-.14.53-.22.07-.08.11-.26.11-.55v-3.69c0-.42-.07-.72-.2-.9s-.35-.26-.64-.26c-.27,0-.51.08-.73.25-.22.17-.38.38-.51.64-.12.26-.19.54-.19.83v3.13c0,.29.04.47.11.55.07.08.25.15.53.22.13.03.2.09.2.18,0,.1-.06.16-.19.16h-3.71c-.12,0-.18-.05-.18-.16Z"></path>
    <path fill="#5acf95" d="M181.96,77.85c0-.24.08-.44.23-.6s.35-.24.61-.24c.11,0,.22.02.33.06.11.04.24.09.37.16.28.14.51.21.69.21.28,0,.5-.11.65-.34.16-.22.31-.52.46-.88l.27-.62-3.06-5.88c-.14-.26-.25-.42-.35-.5-.08-.07-.17-.11-.26-.14s-.21-.05-.33-.07c-.11-.02-.17-.08-.17-.18s.06-.15.18-.15h4.37c.13,0,.19.05.19.16,0,.09-.06.15-.18.17-.39.06-.65.12-.78.19-.13.06-.2.15-.2.27,0,.07.03.16.08.28l1.64,3.35,1.46-3.23c.08-.17.12-.31.12-.42,0-.12-.07-.21-.22-.26s-.41-.11-.78-.17c-.12-.02-.18-.08-.18-.17,0-.11.06-.16.19-.16h2.37c.12,0,.18.05.18.16s-.06.16-.17.18c-.29.03-.5.11-.62.24s-.27.37-.43.72l-3.5,7.72c-.19.42-.45.73-.79.94-.34.21-.68.32-1.03.32-.42,0-.75-.11-1-.32-.25-.21-.37-.47-.37-.77Z"></path>
  </g>
  <path fill="#0d2f69" d="M11.09,21.37c3.17-.28,7.61-.9,12.4-2.17.52-.14.79-.17,1-.17.55,0,.86.34.86.93v28.14c0,2.82.38,3.13,3,3.72.76.17.96.45.96.9s-.21.76-.93.76H11.37c-.59,0-.9-.28-.9-.76s.21-.72.83-.86c3.55-.79,3.93-1.1,3.93-4.79v-17.15c0-4.06-.93-5.17-4.2-6.72-.65-.31-.9-.59-.9-1.03,0-.55.38-.76.96-.79ZM28.73,25.19c2.62-3.75,5.41-6.3,9.68-6.3,4.55,0,7.68,3.24,7.68,10.12v19.08c0,2.82.38,3.13,3,3.72.76.17.96.45.96.9s-.21.76-.93.76h-16.19c-.72,0-.93-.31-.93-.76s.21-.72.96-.9c2.62-.59,3-.9,3-3.72v-17.32c0-3.58-1.38-4.86-3.58-4.86-1.03,0-1.83.17-2.86.59-.17.07-.34.1-.48.1-.41,0-.65-.31-.65-.62,0-.24.1-.45.34-.79ZM49.46,25.19c2.62-3.75,5.41-6.3,9.68-6.3,4.55,0,7.68,3.24,7.68,10.12v18.05c0,3.68.38,3.99,3.93,4.79.62.14.83.38.83.86s-.31.76-.9.76h-17.01c-.72,0-.93-.31-.93-.76s.21-.72.96-.9c2.62-.59,3-.9,3-3.72v-17.32c0-3.58-1.38-4.86-3.58-4.86-1.03,0-1.83.17-2.86.59-.17.07-.34.1-.48.1-.41,0-.65-.31-.65-.62,0-.24.1-.45.34-.79ZM70.88,19.99h19.6c.72,0,.96.31.96.79,0,.41-.21.72-.9.83-3.79.55-4.61,1.03-4.61,2.03,0,.48.21,1.21.55,1.96l8.13,17.18c.79,1.69.93,2.51.07,4.48l-2.48,5.75c-.28.65-.69,1.03-1.55,1.03s-1.27-.38-1.58-1.03l-13.67-27.93c-.62-1.24-1.1-1.96-1.69-2.45-.79-.62-1.65-.83-2.89-1.03-.59-.1-.83-.38-.83-.86s.31-.76.9-.76ZM97.12,19.99h11.43c.65,0,1,.28,1,.76s-.21.72-.86.86c-2.72.59-3.68,1.31-5.1,4.68l-5.61,13.26c-.1.28-.24.34-.45.34-.59,0-1.21-.83-1.21-1.62,0-.28.07-.52.17-.79l4.82-11.74c.34-.83.52-1.48.52-2,0-1.24-1.24-1.58-4.79-2.14-.65-.1-.86-.41-.86-.83,0-.48.21-.79.93-.79ZM124.33,35.14c.76-.28,1.83-.59,2.38-.59.59,0,.79.31.79.69,0,.31-.14.62-.76.96-5.27,2.93-7.16,5.06-7.16,8.16s1.96,4.2,4.13,4.2c.9,0,1.93-.17,2.96-.76.62-.34,1.21-.07,1.21.52,0,.52-.55,1.17-1.17,1.83-2.48,2.65-5.68,4.41-9.33,4.41-4.41,0-7.65-2.55-7.65-6.65,0-5.72,6.37-9.78,14.6-12.78ZM115.86,24.05c2.72,0,4.61,1.83,4.61,4.61s-1.89,4.61-4.61,4.61-4.61-1.83-4.61-4.61,1.89-4.61,4.61-4.61ZM129.87,18.89c6.82,0,10.5,3.62,10.5,11.23v15.84c0,1.79.21,2.69,1.52,2.69s2.24-1.07,3.31-3.03c.21-.38.41-.59.79-.59.76,0,.9.93.69,1.72-1.38,5.23-4.61,7.71-9.16,7.71-4.86,0-7.27-2.48-7.27-8.23v-15.26c0-6.47-2.07-8.27-5.51-8.27-.96,0-1.72.17-2.45.41-.41.14-.62.24-.9.24-.48,0-.76-.28-.76-.69,0-.28.14-.52.41-.76,2.31-1.89,5.2-3.03,8.82-3.03Z"></path>
  <path fill="#0d2f69" d="M142.85,23.01c0-.59.13-1.11.4-1.57.26-.45.63-.81,1.09-1.07s1-.39,1.6-.39,1.14.13,1.6.39.82.61,1.09,1.07c.26.45.4.98.4,1.57s-.13,1.11-.4,1.57c-.26.45-.63.81-1.09,1.07-.46.26-.99.39-1.6.39s-1.14-.13-1.6-.39c-.46-.26-.83-.61-1.09-1.07-.26-.45-.4-.98-.4-1.57ZM143.62,21.66c-.22.39-.34.85-.34,1.36s.11.96.34,1.36.54.7.93.92c.4.22.86.33,1.37.33s.97-.11,1.37-.33c.4-.22.71-.53.93-.92.22-.39.34-.85.34-1.36s-.11-.96-.34-1.36c-.22-.39-.54-.7-.93-.92-.4-.22-.86-.33-1.37-.33s-.98.11-1.37.33c-.4.22-.71.53-.93.92ZM144.3,24.32c0-.07.04-.11.11-.12.13-.03.22-.06.25-.11.03-.05.05-.17.05-.34v-1.59c0-.18-.02-.29-.05-.34-.03-.05-.12-.09-.25-.12-.07-.02-.11-.06-.11-.12s.04-.1.11-.1h1.52c.88,0,1.31.23,1.31.7,0,.18-.07.34-.21.47-.14.13-.37.23-.7.29.23.03.41.08.54.17.09.06.17.14.23.24.06.1.12.25.19.45.05.16.09.25.11.29.02.03.06.05.1.05.03,0,.07,0,.12-.02.03-.01.06-.02.08-.02.06,0,.09.04.09.11,0,.03-.01.06-.04.09-.06.06-.16.1-.29.13s-.27.04-.39.04c-.32,0-.53-.11-.64-.32-.04-.07-.07-.16-.09-.25-.03-.09-.05-.18-.08-.28-.02-.1-.05-.19-.08-.27-.03-.08-.06-.14-.09-.17-.05-.06-.16-.1-.31-.1h-.15v.65c0,.18.02.29.05.34.03.05.12.09.25.12.07.02.11.06.11.12s-.04.1-.11.1h-1.51c-.07,0-.11-.03-.11-.1ZM145.62,22v.82h.12c.24,0,.39-.05.47-.15.07-.1.11-.23.11-.4,0-.2-.04-.35-.13-.44-.09-.09-.18-.13-.29-.13-.18,0-.28.1-.28.3Z"></path>
</svg>