<?xml version="1.0" encoding="UTF-8"?>
<svg id="Layer_1" xmlns="http://www.w3.org/2000/svg" xmlns:xlink="http://www.w3.org/1999/xlink" version="1.1" viewBox="0 0 117 69">
  
  <defs>
    
  </defs>
  <path class="st0" d="M1.9,1.3h1.6v66.5h-1.6V1.3h0ZM16.3,36.1h-3.1v10.2h3.1c1.3,0,2.3-.4,3-1.3.7-.9,1-2.2,1-3.9s-.3-2.9-1-3.7c-.7-.9-1.7-1.3-3-1.3h0ZM11.3,47.9v-13.4h5.1c1.9,0,3.3.6,4.3,1.7,1,1.1,1.5,2.7,1.5,4.8s-.5,3.9-1.5,5.1c-1,1.2-2.5,1.8-4.3,1.8h-5ZM25.2,42.2h5.3c0-.9-.2-1.6-.7-2.1-.5-.5-1.1-.7-1.9-.7s-1.4.2-1.9.7c-.5.5-.7,1.2-.8,2.1h0ZM30.5,44.8h1.6c-.2,1.1-.6,1.9-1.4,2.5-.8.6-1.7.9-2.9.9s-2.4-.5-3.2-1.4c-.8-.9-1.2-2.1-1.2-3.7s.4-3,1.2-3.9c.8-.9,1.8-1.4,3.2-1.4s2.5.4,3.3,1.3c.8.9,1.1,2.1,1.1,3.6v.4c0,0,0,.2,0,.3h-7c0,1,.3,1.8.8,2.4.5.6,1.2.8,2,.8s1.2-.2,1.7-.5c.4-.3.7-.8.8-1.4h0ZM35.2,43.1c0,1.2.2,2.1.7,2.7.5.6,1.2.9,2.2.9s1.6-.3,2.1-1,.7-1.6.7-2.9-.3-2-.8-2.6c-.5-.6-1.2-1-2.1-1s-1.6.3-2.1,1c-.5.6-.7,1.6-.7,2.8h0ZM33.7,51.6v-13.4h1.6v1.4c.4-.6.9-1,1.4-1.3s1.1-.4,1.8-.4c1.3,0,2.3.5,3.1,1.4.8.9,1.2,2.2,1.2,3.8s-.4,2.9-1.2,3.8c-.8.9-1.8,1.4-3.1,1.4s-1.3-.1-1.8-.4c-.5-.2-1-.6-1.3-1.1v4.9h-1.6ZM50.2,46.6c-.5.5-1.1.9-1.6,1.2s-1.2.4-1.8.4c-1,0-1.8-.3-2.3-.8s-.8-1.2-.8-2.1.3-1.6.8-2.1c.5-.5,1.4-.8,2.5-1,.3,0,.7,0,1.2-.1.8,0,1.3-.2,1.5-.2s.3-.2.4-.3c0-.1,0-.4,0-.8s-.2-.9-.5-1.1c-.4-.3-.9-.4-1.6-.4s-1.3.1-1.7.5-.6.7-.6,1.3h-1.5c0-1.1.3-1.8,1-2.4s1.6-.9,2.9-.9,2.3.2,2.9.7.9,1.3.9,2.3v4.9c0,.4,0,.7.1.8s.3.2.5.2.1,0,.2,0,.1,0,.3,0v1.3c-.2,0-.4,0-.5.1-.1,0-.3,0-.4,0-.5,0-1-.1-1.2-.4-.3-.2-.4-.6-.4-1.1h0ZM50,43c-.4.2-1.2.4-2.2.6-.4,0-.7,0-.8.1-.6,0-1,.3-1.3.5-.3.3-.4.6-.4,1.1s.1.9.5,1.1.7.4,1.3.4c.9,0,1.6-.2,2.2-.7s.8-1,.8-1.7v-1.5h0ZM53.8,47.9v-9.7h1.6v1.7c.3-.7.6-1.1,1.1-1.5s1-.5,1.6-.5h.3c0,0,.1,0,.2,0v1.7c0,0,0,0-.1,0h-.2c-.9,0-1.5.2-2,.7-.5.5-.7,1.2-.7,2.1v5.4h-1.6ZM63,45.5c0,.4,0,.7.2.9s.4.2.7.2.2,0,.3,0c.1,0,.3,0,.5,0v1.4c-.3,0-.5,0-.7.1-.2,0-.4,0-.6,0-.8,0-1.3-.1-1.6-.4-.3-.3-.5-.8-.5-1.6v-6.5h-1.5v-1.3h1.5v-2.7h1.6v2.7h1.8v1.3h-1.8v6h0ZM78.1,47.9v-6c0-1-.1-1.7-.4-2s-.7-.5-1.4-.5-1.4.2-1.8.7c-.4.5-.7,1.2-.7,2.1v5.8h-1.7v-6c0-1-.1-1.7-.4-2s-.7-.5-1.4-.5-1.4.3-1.8.7-.7,1.2-.7,2.1v5.8h-1.6v-9.7h1.6v1.4c.4-.5.8-.9,1.3-1.2.5-.3,1.1-.4,1.7-.4s1.1.1,1.6.4c.4.2.8.6,1.1,1.2.4-.5.9-.9,1.4-1.2.5-.2,1.1-.4,1.7-.4s1.2.1,1.6.3.8.6,1.1,1c.1.3.2.5.3.9,0,.3,0,.9,0,1.6v6.1h-1.6ZM82.9,42.2h5.3c0-.9-.2-1.6-.7-2.1-.5-.5-1.1-.7-1.9-.7s-1.4.2-1.9.7c-.5.5-.7,1.2-.8,2.1h0ZM88.3,44.8h1.6c-.2,1.1-.6,1.9-1.4,2.5s-1.7.9-2.9.9-2.4-.5-3.2-1.4c-.8-.9-1.2-2.1-1.2-3.7s.4-3,1.2-3.9c.8-.9,1.8-1.4,3.2-1.4s2.5.4,3.3,1.3c.8.9,1.1,2.1,1.1,3.6v.4c0,0,0,.2,0,.3h-7c0,1,.3,1.8.8,2.4.5.6,1.2.8,2,.8s1.2-.2,1.7-.5c.4-.3.7-.8.9-1.4h0ZM97.7,47.9v-6c0-1-.1-1.6-.4-2s-.8-.5-1.5-.5-1.6.3-2.1.8-.8,1.3-.8,2.2v5.5h-1.6v-9.7h1.6v1.4c.4-.6.8-1,1.3-1.3.5-.3,1.1-.4,1.8-.4s1.3.1,1.9.3c.5.2.9.5,1.2,1,.1.2.3.5.3.8,0,.3.1.8.1,1.5v6.3h-1.6ZM103.5,45.5c0,.4,0,.7.2.9s.4.2.7.2.2,0,.3,0,.3,0,.5,0v1.4c-.3,0-.5,0-.7.1-.2,0-.4,0-.6,0-.8,0-1.3-.1-1.6-.4-.3-.3-.5-.8-.5-1.6v-6.5h-1.5v-1.3h1.4v-2.7h1.6v2.7h1.8v1.3h-1.8v6h0ZM11.7,67.5v-8.4h-1.6v-1.3h1.6v-1.4c0-.8.2-1.4.5-1.8.4-.4.9-.6,1.7-.6s.3,0,.4,0,.4,0,.8.1v1.5c-.2,0-.3,0-.4,0-.1,0-.2,0-.3,0-.4,0-.7.1-.8.3s-.2.6-.2,1.2v.8h1.8v1.3h-1.8v8.4h-1.7ZM17.2,62.6c0,1.2.3,2.1.8,2.8.5.6,1.3,1,2.2,1s1.7-.3,2.2-1c.5-.6.8-1.6.8-2.8s-.3-2.1-.8-2.8c-.5-.6-1.2-1-2.2-1s-1.7.3-2.2,1c-.5.6-.8,1.5-.8,2.8h0ZM15.5,62.6c0-1.6.4-2.9,1.2-3.8.8-.9,2-1.4,3.4-1.4s2.6.5,3.4,1.4c.8.9,1.2,2.2,1.2,3.8s-.4,2.9-1.2,3.8c-.8.9-2,1.4-3.4,1.4s-2.6-.5-3.5-1.4c-.8-.9-1.2-2.2-1.2-3.8h0ZM26.2,67.5v-9.7h1.6v1.7c.3-.7.6-1.1,1.1-1.5s1-.5,1.6-.5h.3c0,0,.1,0,.2,0v1.7c0,0,0,0-.1,0h-.2c-.9,0-1.5.2-2,.7-.5.5-.7,1.2-.7,2.1v5.4h-1.6ZM37.4,67.5v-13.4h9.5v1.7h-7.7v4h7.2v1.6h-7.2v4.5h7.9v1.7h-9.7ZM55,62.6c0-1.2-.2-2.1-.7-2.7-.5-.6-1.2-.9-2.2-.9s-1.6.3-2.1,1c-.5.7-.8,1.6-.8,2.9s.3,2,.8,2.6c.5.6,1.2,1,2.1,1s1.6-.3,2.1-1c.5-.6.8-1.6.8-2.8h0ZM56.5,54.1v13.4h-1.6v-1.2c-.4.5-.9.9-1.4,1.1-.5.3-1.1.4-1.7.4-1.3,0-2.3-.5-3.1-1.4s-1.2-2.2-1.2-3.7.4-2.9,1.2-3.8c.8-.9,1.8-1.4,3.1-1.4s1.3.1,1.8.4,1,.6,1.4,1.1v-4.8h1.6ZM60.1,57.8v6c0,1,.1,1.6.5,2s.8.6,1.5.6,1.7-.3,2.1-.8c.5-.6.7-1.4.7-2.5v-5.2h1.6v9.7h-1.6v-1.5c-.3.6-.8,1-1.3,1.3-.5.3-1.2.4-1.9.4s-1.3-.1-1.8-.3c-.5-.2-.9-.6-1.2-1-.1-.2-.3-.5-.3-.8,0-.3-.1-.8-.1-1.5v-6.3h1.7ZM75.1,61c0-.7-.3-1.2-.7-1.5-.4-.4-1-.5-1.8-.5s-1.6.3-2.1,1c-.5.6-.7,1.5-.7,2.7s.2,2.1.7,2.7,1.1,1,2,1,1.4-.2,1.8-.6c.5-.4.7-1,.9-1.7h1.6c0,1.2-.5,2.1-1.3,2.8-.8.7-1.8,1-3.1,1s-2.4-.5-3.1-1.4c-.8-.9-1.1-2.2-1.1-3.8s.4-2.9,1.2-3.8c.8-.9,1.9-1.4,3.3-1.4s2.2.3,2.9,1c.7.6,1.1,1.5,1.2,2.6h-1.6ZM84.3,66.2c-.5.5-1.1.9-1.6,1.2-.6.3-1.2.4-1.8.4-1,0-1.8-.3-2.3-.8-.6-.5-.8-1.2-.8-2.1s.3-1.6.8-2.1c.5-.5,1.4-.8,2.5-1,.3,0,.7,0,1.2-.1.8,0,1.3-.2,1.5-.2.2,0,.3-.2.4-.3,0-.1,0-.4,0-.8s-.2-.9-.5-1.1-.9-.4-1.6-.4-1.3.1-1.7.5-.6.7-.6,1.3h-1.5c0-1.1.3-1.8,1-2.4.7-.6,1.6-.9,2.9-.9s2.3.2,2.9.7.9,1.3.9,2.3v4.9c0,.4,0,.7.1.8,0,.1.3.2.5.2s.1,0,.2,0,.1,0,.3,0v1.3c-.2,0-.4,0-.5.1-.1,0-.3,0-.4,0-.5,0-1-.1-1.2-.4s-.4-.6-.4-1.1h0ZM84.1,62.6c-.4.2-1.2.4-2.2.6-.3,0-.6,0-.8.1-.6,0-1,.3-1.3.5-.3.3-.4.6-.4,1.1s.1.9.5,1.1.7.4,1.3.4c.9,0,1.6-.2,2.2-.7s.8-1,.8-1.7v-1.5h0ZM90,65.1c0,.4,0,.7.2.9s.3.2.7.2.2,0,.3,0c.1,0,.3,0,.5,0v1.4c-.3,0-.5,0-.7.1s-.4,0-.6,0c-.8,0-1.3-.1-1.6-.4s-.5-.8-.5-1.6v-6.5h-1.5v-1.3h1.5v-2.7h1.6v2.7h1.8v1.3h-1.8v6h0ZM93.1,56v-1.9h1.6v1.9h-1.6ZM93.1,67.5v-9.7h1.6v9.7h-1.6ZM97.9,62.6c0,1.2.3,2.1.8,2.8.5.6,1.3,1,2.2,1s1.7-.3,2.2-1,.8-1.6.8-2.8-.3-2.1-.8-2.8-1.2-1-2.2-1-1.7.3-2.2,1c-.5.6-.8,1.5-.8,2.8h0ZM96.2,62.6c0-1.6.4-2.9,1.2-3.8.8-.9,2-1.4,3.4-1.4s2.6.5,3.4,1.4c.8.9,1.2,2.2,1.2,3.8s-.4,2.9-1.2,3.8c-.8.9-2,1.4-3.4,1.4s-2.6-.5-3.4-1.4c-.8-.9-1.2-2.2-1.2-3.8h0ZM113.5,67.5v-6c0-1-.1-1.6-.4-2-.3-.4-.8-.5-1.5-.5s-1.6.3-2.1.8c-.5.5-.8,1.3-.8,2.2v5.5h-1.6v-9.7h1.6v1.4c.4-.6.8-1,1.3-1.3.5-.3,1.1-.4,1.8-.4s1.3.1,1.9.3c.5.2.9.5,1.2,1,.1.2.3.5.3.8,0,.3.1.8.1,1.5v6.3h-1.6ZM23.8,5.5c-.1.3-.3.5-.3.7,0,.2.3.4.4.6.1-.3.3-.5.3-.7,0-.2-.3-.5-.4-.6M27.7,5.5c.1.3.3.5.3.7,0,.2-.3.4-.4.6-.1-.3-.3-.5-.3-.7,0-.2.3-.5.4-.6M21.5,5.3c.1,0,.3-.1.3-.3s-.1-.3-.3-.3h0c-.1,0-.3.1-.3.3s.1.3.3.3h0M21.7,5.7c0-.1-.1-.3-.3-.3s-.3.1-.3.3h0c0,.1.1.3.3.3s.3-.1.3-.3M21.9,6.4c0-.1-.1-.3-.3-.3s-.3.1-.3.3h0c0,.1.1.3.3.3s.3-.1.3-.3M23,4.1c.1,0,.3-.1.3-.3s-.1-.3-.3-.3-.3.1-.3.3.1.3.3.3M22.3,4.3c.1,0,.3-.1.3-.3,0-.1-.1-.3-.3-.3h0c-.1,0-.3.1-.3.3,0,.1.1.3.3.3M21.8,4.7c.1,0,.3-.1.3-.3h0c0-.1-.1-.3-.3-.3s-.3.1-.3.3h0c0,.1.1.3.3.3M23.7,4.2c.1,0,.3-.1.3-.3s-.1-.3-.3-.3h0c-.1,0-.3.1-.3.3,0,.1.1.3.3.3M24.4,4.3c.1,0,.3-.1.3-.3s-.1-.3-.3-.3-.3.1-.3.3.1.3.3.3M25,4.6c.1,0,.3-.1.3-.3s-.1-.3-.3-.3h0c-.1,0-.3.1-.3.3s.1.3.3.3M29.7,5.1c0,.1.1.3.3.3s.3-.1.3-.3h0c0-.1-.1-.3-.3-.3s-.3.1-.3.3M30,5.5c-.1,0-.3.1-.3.3s.1.3.3.3h0c.1,0,.3-.1.3-.3s-.1-.3-.3-.3M29.9,6.1c-.1,0-.3.1-.3.3s.1.3.3.3h0c.1,0,.3-.1.3-.3h0c0-.1-.1-.3-.3-.3M28.5,4.1c.1,0,.3-.1.3-.3s-.1-.3-.3-.3-.3.1-.3.3.1.3.3.3M29.1,4.3c.1,0,.3,0,.4-.1s0-.3-.1-.4-.3,0-.4.1,0,.3.1.4M29.7,4.7c.1,0,.3-.1.3-.3s-.1-.3-.3-.3-.3.1-.3.3.1.3.3.3M27.8,4.2c.1,0,.3-.1.3-.3s-.1-.3-.3-.3-.3.1-.3.3.1.3.3.3M27.1,4.3c.1,0,.3-.1.3-.3s-.1-.3-.3-.3-.3.1-.3.3.1.3.3.3M26.3,4.4c0,.1.1.3.3.3.1,0,.2-.1.3-.3,0-.1-.1-.3-.3-.3s-.3.1-.3.3M25.3,5.8h.3v-1.1c-.1,0-.2,0-.3,0v1.2h0ZM26.2,4.6c0,0-.2,0-.3,0v1.1h.3v-1.2ZM25.6,3.3v-.7c-.3,0-.6.3-.7.7h.7ZM25.9,3.3h.6c0-.3-.3-.6-.6-.7v.7h0ZM24.9,3.6c0,.5.5.7,1,.6.3,0,.6-.3.6-.6h-1.6ZM26.2,2.5c-.2-.1-.3-.4-.4-.6.2,0,.5.2.6.4v-.9c-.1.2-.4.3-.6.4,0-.2.2-.4.3-.7h-.9c.2.2.3.4.3.7-.2,0-.5-.2-.6-.4v.9c.1-.2.4-.3.6-.4,0,.2-.2.4-.4.6h.9ZM27.2,20.7c-.8-.2-1.8-.6-2.7-1h0c0-.2,0-.4-.2-.6s-.3-.3-.5-.3-.2,0-.3,0c-.1-.1-.3-.3-.4-.4-.3-.4-.6-.9-.8-1.4-.1-.3-.2-.6-.2-.9,0,.3-.3.6-.9.6,0,0,0-.2,0-.2-.1.1-.3.3-.8.1,0,.4.2.7.3,1.1.3.7.7,1.4,1.2,2,.2.2.3.4.5.5h0c0,.3.2.6.5.7.2.1.5,0,.7,0,.4.2.9.4,1.5.6.6.2,1.2.3,1.7.3s.9-.2,1.5-.5c.2-.1.4-.3.6-.4,0,0,0,0,0,0-.4,0-1,0-1.5-.2M24.1,19.4h0c-.2-.2-.3-.2-.4,0,0,0-.1.1-.2.2h0c0,.1,0,.2,0,.2.2.1.2.3.1.4,0,0,0,0,0,0,0,0-.2,0-.3,0h0s0,0,0,0h0c0,0,0,0,0,.1,0,.1-.1.2-.1.3s0,0,0,0c0,0,.1.1.2.2h0c0,0,.2.1.3.2-.1,0-.3,0-.5,0-.2-.1-.4-.4-.4-.5,0-.2,0-.5.3-.7h0s0,0,0,0c0,0,0-.1-.1-.2,0,0,.2,0,.3,0h0s0,0,0,0c.1-.1.5-.5.8-.5s.3,0,.4.2c0,0,.1.2.1.3,0,0,0,0-.1,0M24.7,21c-.2,0-.4-.2-.4-.4s.2-.4.4-.4.4.2.4.4c0,.2-.2.4-.4.4M26.2,21.5c-.2,0-.3-.2-.3-.3s.1-.3.3-.3c.2,0,.3.1.3.3s-.1.3-.3.3M26.7,23.2c0,0-.1,0-.2,0v-1c-.5,0-1,0-1.5-.2v1.2c0,0-.1,0-.2,0-.3,0-.6.3-.6.6s.1.5.3.6c0-.2.1-.3.2-.3.2,0,0,.9.6.9,0,0,0,0,0,.1,0,.2.2.4.4.4s.4-.2.4-.4,0,0,0-.1c.5,0,.4-.9.6-.9s.1.1.2.3c.1-.1.3-.4.3-.6,0-.3-.2-.6-.6-.6M25.8,25.3c-.1,0-.2,0-.2-.2s0-.2.2-.2.2,0,.2.2c0,.1-.1.2-.2.2M26.9,24.1c0-.1-.1-.2-.2-.2-.3,0-.2.9-.6.9s-.3-.1-.3-.2,0-.2,0-.3,0-.1-.2-.1-.2,0-.2.1,0,.1,0,.3,0,.2-.3.2c-.4,0-.3-.9-.6-.9s-.2,0-.2.2c0-.1-.1-.3-.1-.3,0-.2.1-.4.4-.4.5,0,.3.6.6.6s.2,0,.2-.1c0-.2-.3-.3-.3-.6s.2-.5.5-.7c.3.2.5.4.5.7s-.3.4-.3.6,0,.1.2.1c.2,0,.1-.6.6-.6s.4.2.4.4c0,0,0,.2,0,.3"></path>
  <path class="st0" d="M38.3,24.3c0,0,0,0-.1,0-1.2.3-2.6-.6-4-1.6-1.2-.8-2.3-1.5-3.2-1.5s-.7,0-.9.2c-.3.2-.6.5-.7.9-.2.4-.3.7-.5.9-.2.3-.3.4-.3.7s0,.4.2.5c.1.1.3.3.6.4,0,0,.1,0,.2,0,.2.1.4.2.4.3-.5.2-1.1.4-1.7.5-.8.1-1.6.2-2.5.2s-1.7,0-2.5-.2c-.7-.1-1.3-.3-1.7-.5,0-.2.2-.3.4-.4,0,0,.1,0,.2,0,.2-.1.5-.2.6-.4.2-.1.2-.3.2-.5s-.1-.4-.3-.7c-.1-.2-.3-.5-.5-.9s-.4-.7-.7-.9c-.3-.1-.6-.2-.9-.2-.9,0-2.1.7-3.2,1.5-1.4.9-2.8,1.9-4,1.6,0,0-.1,0-.1,0,0,0,0,.1,0,.1h0c.4.2.7.4,1,.6.4.3.8.6,1.3.6s.9-.1,1.4-.4c.5-.2,1-.6,1.4-.9.9-.6,1.9-1.3,2.8-1.3,0,0-.2.2-.3.3-.3.2-.5.4-.5.9s.1.6.3.9c0,0,0,.2.1.3.1.2.1.4.2.7,0,.1,0,.2,0,.4,0,.2.2.6.8.9.8.4,2.1.6,3.9.6s3.2-.2,3.9-.6c.7-.3.8-.7.8-.9,0-.1,0-.3,0-.4,0-.2.1-.4.2-.7,0-.2.1-.3.2-.4.1-.3.3-.5.3-.8s-.2-.6-.5-.9c0,0-.2-.2-.3-.3.9,0,1.9.7,2.8,1.3.5.3,1,.7,1.4.9.5.3,1,.4,1.4.4s.8-.3,1.3-.6c.3-.2.6-.5,1-.6,0,0,0,0,0-.1M31.3,15c-.1,0-.3-.3-.5-.5-.1-.3-.7-1.4-.8-1.6,0-.1-.1-.2-.1-.3s0-.2.1-.3c0,0,.2-.2.2-.3,0,0,0-.1.1-.1-.2-.4-.4-.6-.7-.9-.3-.4-.7-.7-1.1-1,.2-.1.4-.3.4-.7s0-.4-.2-.5c.2-.7.7-1.6,1-2l-.7-.3c.2.3.2.6.2.8-.2-.1-.4-.3-.4-.6,0,.2-.2.6-.3.8.2-.1.4-.1.6,0-.1.2-.5.4-.9.3-.3,0-.5-.2-.5-.4,0-.1,0-.3.3-.3.2,0,.2.3.1.4.2-.1.4-.7.1-.8-.3,0-.5.3-.6.6,0-.3-.2-.7-.5-.6-.3,0-.2.7-.1.8,0-.2.1-.3.2-.3,0,0,.2,0,.2.3s-.3.3-.6.3-.9,0-.9-.7c.2,0,.5.2.7.4,0-.3,0-.7,0-1-.2.2-.5.4-.7.4,0-.3.3-.5.5-.7h-1.4c.3.2.5.4.5.7-.2,0-.5-.2-.6-.4,0,.4,0,.6,0,1,.1-.2.5-.4.7-.4,0,.6-.6.7-.9.7s-.6-.1-.6-.3c0-.2.1-.3.2-.3.1,0,.2.1.2.3.1-.2.2-.8-.1-.8-.3,0-.4.3-.5.6,0-.3-.3-.6-.6-.6-.3,0-.1.7.1.8,0-.1,0-.4.1-.4.2,0,.3.1.3.3,0,.2-.3.3-.5.4-.5.1-.8-.1-.9-.3.2,0,.4,0,.6,0-.1-.2-.2-.6-.3-.8,0,.3-.2.4-.4.6,0-.3,0-.6.2-.9l-.7.3c.4.4.8,1.3,1,2-.1.1-.2.3-.2.5,0,.3.2.6.4.7-.4.3-.8.6-1.1,1-.5.6-.9,1.3-1.2,2,.1.1.5.6.7.7.2.2.3.5.3.7,0,.3,0,.5.3.7,0,0,.1.3.1.5h3.7v4c-.1,0-.3,0-.4.2.4.2.8.3,1.3.5,0-.3,0-.4.2-.6,0,0-.5,0-.8,0v-4h3.6c0,.5-.1,1.1-.3,1.6-.2.5-.5,1-.8,1.4-.3.4-.7.7-1.2.9,0,0,0,0-.1.1,0,0-.1.2-.2.3,0,.1,0,.2,0,.4.2,0,.3,0,.4.1,1.3.3,1.6.2,1.7.2h0c.3-.2.6-.5.8-.7.5-.6.9-1.3,1.2-2,.3-.8.4-1.6.4-2.5,0-.2,0-.3,0-.4h0ZM25.7,15.3h-3.7c0-.6.1-1.1.3-1.7.2-.5.5-1,.8-1.4.3-.4.7-.7,1.2-.9.4-.2.9-.3,1.4-.3v4.4h0ZM25.8,9.1c-1.2,0-2.1.4-2.6.7-.3-.2-.4-.3-.4-.5,0-.7,2-.8,3-.8h0c1,0,3,0,3,.8s-.1.4-.4.5c-.5-.3-1.3-.7-2.6-.7h0ZM25.9,15.3v-4.4c.5,0,.9.1,1.3.3.5.2.9.5,1.2.9.3.4.6.9.8,1.4.2.5.3,1.1.3,1.7h-3.6Z"></path>
  <path class="st0" d="M29,14.6c0,0,0,.1,0,.1,0-.7-.3-1.3-.7-1.8h0c0,0,.1-.1.2-.2,0,0-.2,0-.2.1,0,0,0,0,0-.1-.2-.3-.5-.5-.8-.7-.3-.2-.6-.3-.9-.4,0,0,0,0,.1,0,0-.1,0-.2-.1-.1,0,0,0,0,0,0,0,0-.1,0-.2,0,0,0,0,.1,0,.2,0,0,0,0,0,0,0,0,0,.2.1.2,0,0,0-.1,0-.1v1.4c0,0-.2,0-.2,0,0,0,.2,0,.2,0v1.5c0,0,0,0,0-.1-.1,0-.2.1-.1.2,0,0,0,0,.1,0,0,0,0,.1,0,.2,0,0,.1,0,.2,0,0,0,0,.1,0,.1,0,0,.2,0,.2-.1,0,0-.1,0-.1,0h1.1c0,0,0,.2,0,.2,0,0,0-.2,0-.2h1.2c0,0,0,0-.1,0,0,.1.1.2.2.1,0,0,0,0,0-.1,0,0,.1,0,.2,0,0,0,0-.1,0-.2,0,0,.1,0,.1,0,0,0,0-.2-.1-.2M27.9,12.7s0,0,0,.1,0,0,.1,0c0,0,0,0,0,.1,0,0,.1,0,.2,0,0,0,0,.1,0,.1,0,0,0,0,0,0,.3.5.5.9.5,1.5,0,0,0,0-.1,0,0,0,0,.1,0,.2h-.9c0,0,0-.1,0-.1,0,0,0,0-.1,0,0,0,0-.1,0-.2,0,0,0,0,0,.2,0,0,0,0-.1,0,0,0,0,0,0,.1h-.8s0,0,0-.2c0,0-.1,0-.2,0v-1.3c0,0,.1,0,.1,0,0,0,0,0,0-.1,0,0,.1,0,.2,0,0,0,0,0-.2,0,0,0,0,0,0-.1,0,0,0,0-.1,0v-1.1s0,0,.1,0c0,0,0-.1,0-.1.2,0,.5.2.7.3.3.2.5.4.7.6"></path>
  <path class="st0" d="M28.3,14.2s0,0,.1,0c0,0,0,0-.1,0,0,0,0,0,0,0,0,0,0,0-.1,0,0,0-.3,0-.3-.2,0,0,0,0,0,0,0,0,0,0,0,0h0s0,0,0,0h0c0,0,.1,0,.1-.1,0-.1-.1-.2-.2-.3,0,0,0,0-.1-.1,0,0,0-.2-.1-.3,0,0,0,0,0-.1,0,.1,0,.3,0,.5.1.1.4.3.4.4s0,0,0,0h0s0,0,0,0c0,0,0,0,0,0,0,0,0,0,0,0-.1-.1-.2-.2-.3-.3-.1-.1,0-.3,0-.4,0-.1,0-.4-.1-.4,0,0,0,0,0-.1,0,0,0,0,0,0,0,0,0,0,0,0,0,0,0,0,0,0,0,0,0,0,0,0,0,0,0,0,0,0,0,0,0,0,0,0,0,0,0,0,0,0,0,0,0,0,0,0h0s0,0,0,0c0,0,0,0,0,0,0,0,0,0,0,0s0,0-.1,0c0,0,0,0,0,0,0,0,0,0,0,0,0,0,.2,0,.2,0,0,.1-.1.1-.2.3,0,0,0,0,0,0,0,0,0,0-.1-.1,0,0,0,0-.1,0,0,0,0,0,0-.1s0,0,0-.1c0,0,0,0,0,0,0,0,0,0,0,0,0,0,0,0,0,0,0,0,0,0,0,0,0,0,0,0,0,0h0c0,0,0,0,0,0,0,0,0,0,0,0h0s0,0,0,0c0,0,0,0,0,0s0,0,0,0c0,0,0,0,0,0h0c0,0,0,0,0,0h0s0,0,0,0c0,0,0,0,0,0h0s0,0,0,0c0,0,0,0,0,0h0c0,0,0,0,0,.1,0,0,0,0,0,0,0,0,0,.1.1.1,0,0,0,0,0,0,0,0,0,0,0,0h0s0,0,0,0c0,0,0,0,0,0,0,0,0,0,0,0,0,0,.1.2.3.3,0,0-.1.1-.2.2,0,0-.1,0-.1,0,0,0,0,0,0,0,0,0,0,0,0,0s0,0,0,0c0,0,0,0,0,0,0,0,0,0,0,0h0s0,0,0,0c0,0,0,0,0,0,0,0,0,0,0,0,0,0,0,0,0,0,0,0,0,0,0,0h0s0,0,0,0c0,0,0,0,0,0,0,0,0,0,0,0,0,0,0,0,.1,0,0,0,0,0,0,0,0,0,0,0,0,0h0c0,0,0,0,0,0,0,0,0,0,0,0h0s0,0,0,0c0,0,0,0,0,0,0,0,0,0,0,0,0,0,0,0,0,0,0,0,.1,0,.1,0,0,0,0,0,0,0s0,0,.1,0c0,0,0,0,0,0,0,.2.3.2.4.4,0,0-.2,0-.3,0,0,0-.2,0-.2.2,0,0,0,.2.1.2,0,0-.1,0-.2,0h0c0,0,0-.1-.2,0,0,0,0,0,0,0h0s0,0,0,0c0,0,0,0,0,0h0s0,0,0,0,0,0,0,0c0,0,0,0,0,0,0,0-.1,0,0,0,0,0,0,0,0,0,0,0,0,0,0,0,0,0,0,0,0,0h0s0,0,0,0h0s0,0,0,0h0s0,0,0,0c0,0,0,0,0,0,0,0,0,0,0,0t0,0s0,0,0,0,0,0,0,0h0s0,0,0,0c0,0,0,0,0,0,0,0,0,0,0,0,0,0,0,0,0,0,0,0,0,0,0,0h0s0,0,0,0c0,0,0,0,0,0,0,0,0,0,0-.1,0-.1.1-.2.2-.2,0,0,.1.3.3.3.1,0,.1,0,.2,0,0,0,0,0,0,0,0,0,0,0,0,.1s0,0-.1,0,0,0,0,0c0,0,0,0,0,0,0,0,0,0,0,0h0c0,0,0,0,0,0h0s0,0,0,0c0,0,0,0,0,0,0,0,0,0,0,0,0,0,0,0,0,0h0s0,0,0,0c0,0,0,0,0,0,0,0,0,0,0,0h0s0,0,0,0c0,0,0,0,0,0,0,0,0,0,0,0,0,0,0,0,0,0,0,0,0,0,0,0h0s0,0,0,0c0,0,0,0,0,0h0ZM25.3,16.2h0c0-.3-.1-.4-.4-.4s-.6.3-1.2.3-.5-.1-.7-.2v.2c0,0,0,0,0,0,0,0,0-.1-.1-.1s-.1,0-.1.1c0,0,0,.1.1.1,0,0,0,0,.1,0v.2s0,0,0,0c0,.9.5,1.9,1.7,2.3.2,0,.3,0,.3.2s0,.2-.2.2-.1,0-.1,0c0,0,.1,0,.1,0,0,0,0,0-.1,0s-.2,0-.2.2.1.2.3.2.4,0,.3-.4c0,0,.1,0,.1,0v-.2s0,0,0,0v-2h0c0,0,.1,0,.1-.1,0-.1,0-.1-.1-.1M23.3,16.4l1.4,2c-.7-.3-1.5-.9-1.4-2M24.7,18.2l-1.2-1.8h.1c0,0,.1,0,.2,0l1,1.4c0,.1,0,.3,0,.4M24.7,17.6l-.9-1.3c0,0,.2,0,.3,0l.7.9v.4M24.9,16.2h0c0,0-.1,0-.1.1s0,.1.1.1h0,0c0,.2,0,.3,0,.6l-.6-.8c.3-.1.5-.2.6-.2,0,0,.1,0,0,.2M25,12.3c.3,0,.4,0,.4-.2,0-.3-.7-.1-.7-.3s0,0,0,0h0c.4,0,.4-.3.6-.3-.3,0-.4.2-.5.2,0,0,0-.1,0-.1,0,0-.2,0-.3.2,0,0,0,0,0,0,0,0,0,0,0,.1,0,.3.7,0,.7.3s-.1.1-.3.1-.3-.1-.5,0c0,0,0-.1,0-.2,0,0,0,0,0,0,0,0,0,0,0,0,0,0,0,0,0,0h0c0,0,0,0,0,0,0,0,0,0,0,0h0s0,0,0,0c0,0,0,0,0,0,0,0,0,0,0,0,0,0,0,0,0,0,0,0,0,0,0,0,0,0,0,0,0,0,0,0,0,0,0,0,0,0,0,.1,0,.2,0,0,0,0,0,0,0,0,0,0,0,0,0,0,0,0,0-.1h0c0,0,0,0,0,0,0,0,0,0,0,0t0,0s0,0,0,0h0s0,0,0,0c0,0,0,0,0,0h0s0,0,0,0c0,0,0,0,0,0,0,0,0,0,0,0,0,0,0,0,0,0h0c0,0,0,0,0,0h0s0,0,0,0c0,0,0,0,0,0h0s0,0,0,0h0s0,0,0,0h0s0,0,0,0c0,0,0,0,0,0,0,0,0,0,0,0,0,0,0,.1,0,0h0s0,0,0,0c0,0,0,0,0,0h0s0,0,0,0c0,0,0,0,0,0s0,0,0,0c0,0-.1,0-.2,0,0,0-.1,0-.1,0,0,0-.1,0-.2,0,0,0,0,0,0,0,0,0,0,0,0,0h0s0,0,0,0c0,0,0,0,0,0,0,0,0,0,0,0,0,0,0,0,0,0,0,0,0,0,0,0h0s0,0,0,0t0,0h0s0,0,0,0c0,0,0,0,0,0t0,0s0,0,0,0t0,0s0,0,0,0c0,0,0,0,0,0h0s0,0,0,0c0,0,0,0,0,0h0s0,0,0,0h0s0,0,0,0,0,0,0,0h0s0,0,0,0c0,0,0,0,0,0,0,0,0,0,0,0,0,0,0,0,0,0,0,0,0,0,0,0h0s0,0,0,0h0s0,0,0,0c0,0,0,0,0,0,0,0,0,0,.1-.1t0,0s0,0,0,0c0,0,0,0,0,0s0,0,0,0c0,0,0,0,0,0,0,0,0,0,0,0,0,0,.1,0,.2,0,.1,0,0-.1.2-.1,0,0,0,0,0,0,0,0,0,.1,0,.1s0,0,0,0h0s0,0,0,0c0,0,0-.1-.1,0h0s0,0,0,0c0,0,0,0,0,0h0s0,0,0,0h0s0,0,0,0c0,0,0,0,0,0,0,0,0,0,0,0,0,0,0,0,0,0h0s0,0,0,0h0s0,0,0,0c0,0,0,0,0,0,0,0,0,0,0,0,0,0,0,0,0,0,0,0,0,0,0,0h0s0,0,0,0c0,0,0,0,0,0h0s0,0,.1,0c0,0,0,0,0-.1,0,0,0,0,0,0,0,0,0,0,.1,0,.1,0,0,0,0,0s.1,0,.1,0,0,0,0,0c0,0,0,0,0,0,0,0,0,0,0,0s0,0,0,0c0,0,0,0,0,0,0,0,0,0,0,0h0c0,0,0,0,0,0h0s0,0,0,0c0,0,0,0,0,0,0,0,0,0,0,0,0,0,0,0,0,0h0s0,0,0,0h0s0,0,0,0h0s0,0,0,0c0,0,0,0,0,0s0,0,0,0c0,0,0,0,0,0s0,0,0,0,0,0,0,0h0s0,0,0,0c0,0,0,0,0,0h0s0,0,0,0c0,0,0,0,0,0,0,0,0,0,0,0,0,0-.1,0-.2,0t0,0M24.2,12h0M24.4,12s0,0,0,0c0,0,0,0,0,0,0,0,0,0,0,0M24.4,11.9s0,0,0,0c0,0,0,0,0,0,0,0,0,0,0,0M24.3,12.1s0,0,0,0,0,0,0,0c0,0,0,0,0,0,0,0,0,0,0,0,0,0,0,0,0,0s0,0,0,0c0,0,0,0,0,0h0s0,0,0,0h0s0,0,0,0c0,0,0,0,0,0,0,0,0,0,0,0s0,0,0,0h0c0,0,0,0,0,0,0,0,0,0,0,0M25.4,13.3c0,0,0-.1-.3-.1s-.8,0-.8,0,.1,0,.3,0c0,0,0,0,0,0,.3,0,.7,0,.9,0-.2-.2-.4,0-.7,0,.1,0,.2,0,.2,0-.1,0-.3,0-.5,0,0,0,0,0,0,0-.2,0-.3,0-.3.1,0,.3.7.1.9.1s.3,0,.3,0c0,0-.2,0-.3,0-.2,0-.8,0-1.1,0,0,0,0-.1,0-.2,0,0,0,0,0,0,0,0,0,0,0,0,0,0,0,0,0,0h0c0,0,0,0,0,0,0,0,0,0,0,0,0,0,0,0,0,0s0,0,0,0c0,0,0,0,0,0,0,0,0,0,0,0,0,0,0,0,0,0,0,0,0,0,0,0,0,0,0,.1,0,.1,0,0,0,0,0,0,0,0,0,0,0,.1h0s0,0,0,0t0,0h0,0s0,0-.1-.1,0,0,0-.1,0,0,0-.1c0,0,0,0,0,0,0,0,0,0,0,0,0,0,0,0,0,0t0,0s0,0,0,0h0c0,0,0,0,0,0,0,0,0,0,0,0h0s0,0,0,0c0,0,0,0,0,0s0,0,0,0c0,0,0,0,0,0h0c0,0,0,0,0,0h0s0,0,0,0c0,0,0,0,0,0h0s0,0,0,0h0s0,0,0,0h0c0,0,0,0,0,0s0,0,0,0c0,0-.1,0,0,0,0,0,0,.1.1.1h0s0,0,0,0c0,0,0,0,0,0h0s0,0,0,0c0,0,0,0,0,0s0,0,.1,0c0,0,0,0,.1,0,0,0,0,.1,0,.1s-.1,0-.2,0c0,0-.2,0-.2,0,0,0,0,0,0,0,0,0,0,0,0,0h0s0,0,0,0c0,0,0,0,0,0,0,0,0,0,0,0,0,0,0,0,0,0,0,0,0,0,0,0s0,0,0,0c0,0,0,0,0,0,0,0,0,0,0,0h0s0,0,0,0c0,0,0,0,0,0,0,0,0,0,0,0,0,0,0,0,.1,0,0,0,0,0,0,0,0,0,0,0,0,0h0c0,0,0,0,0,0,0,0,0,0,0,0h0s0,0,0,0h0s0,0,0,0c0,0,0,0,0,0h0s0,0,0,0c0,0,0,0,0,0,0,0,0,0,0,0,0,0,0,0,0,0,0,0,0,0,0,0h0s0,0,0,0h0s0,0,0,0c0,0,0,0,0,0,0-.1,0,0,.1-.1t0,0s0,0,0,0c0,0,.2-.1.2-.2,0,0,0,0,0,0,.2,0,0-.2.4-.1,0,0,0,0,0,0,0,0,0,.1,0,.2,0,0,0,0,0,0h0s0,0,0,0c0,0,0-.1-.2,0,0,0,0,0,0,0,0,0,0,0,0,0,0,0,0,0,0,0h0s0,0,0,0,0,0,0,0c0,0,0,0,0,0,0,0-.1,0,0,0,0,0,0,0,0,0,0,0,0,0,0,0,0,0,0,0,0,0h0s0,0,0,0h0s0,0,0,0h0s0,0,0,0c0,0,0,0,0,0,0,0,0,0,0,0,0,0,0,0,0,0,0,0,0,0,0,0,0,0,0,0,0,0h0s0,0,0,0c0,0,0,0,0,0h0s.1,0,.1,0c0,0,0-.1,0-.1,0,0,0,0,0,0,0,0,.1,0,.2,0,.1,0,.1,0,.2,0,0,0,.1,0,.1,0s0,0,0,0c0,0,0,0,0,0s0,0,0,0,0,0,0,0c0,0,0,0,0,0,0,0,0,0,0,0h0c0,0,0,0,0,0h0s0,0,0,0c0,0,0,0,0,0,0,0,0,0,0,0,0,0,0,0,0,0h0s0,0,0,0c0,0,0,0,0,0,0,0,0,0,0,0h0s0,0,0,0c0,0,0,0,0,0s0,0,0,0c0,0,0,0,0,0s0,0,0,0,0,0,0,0h0s0,0,0,0c0,0,0,0,0,0h0s0,0,0,0c0,0,0,0,0,0,0,0,0,0,0,0,0,0-.1,0-.3,0,.2,0,.4,0,.4,0M23.4,13.4h0M23.8,13.1s0,0,.1,0c0,0,0,0,0,0,0,0,0,0,0,0M23.7,13s0,0,0,0c0,0,0,0,0,0,0,0,0,0,0,0M23.6,13.2s0,0,0,0,0,0,0,0c0,0,0,0,0,0,0,0,0,0,0,0,0,0,0,0,0,0,0,0,0,0,0,0,0,0,0,0,0,0h0s0,0,0,0h0s0,0,0,0,0,0,0,0c0,0,0,0,0,0,0,0,0,0,0,0,0,0,0,0,0,0,0,0,0,0,0,0,0,0,0,0,0,0M23.8,13.7h0s0,0,0,0M25.3,14.4c0,0,0-.1-.3-.1s-1,0-1,0,.3,0,.4,0c0,0,0,0,0,0,.3,0,.7-.1.9,0-.2-.2-.4,0-.7,0,.1,0,.3,0,.3,0-.1,0-.4,0-.5,0,0,0,0,0,0,0-.2,0-.5,0-.5.1,0,.3.9.1,1.1.1s.3,0,.3,0-.2,0-.3,0c-.2,0-1-.1-1.3,0,0,0,0-.1,0-.2,0,0,0,0,0,0,0,0,0,0,0,0,0,0,0,0,0,0h0c0,0,0,0,0,0,0,0,0,0,0,0,0,0,0,0,0,0,0,0,0,0,0,0,0,0,0,0,0,0,0,0,0,0,0,0,0,0,0,0,0,0t0,0s0,0,0,0c0,0,0,0,0,0,0,0,0,0,0,0h0s0,0,0,0h0s0,0-.1-.1c0,0,0,0,0-.1s0,0,0-.1c0,0,0,0,0,0,0,0,0,0,0,0,0,0,0,0,0,0t0,0s0,0,0,0h0s0,0,0,0c0,0,0,0,0,0h0s0,0,0,0c0,0,0,0,0,0s0,0,0,0c0,0,0,0,0,0h0c0,0,0,0,0,0h0s0,0,0,0c0,0,0,0,0,0h0s0,0,0,0h0c0,0,0,0,0,.1,0,0,0,0,0,0,0,0,0,0,0,0,0,0,0,.1.1.1h0s0,0,0,0c0,0,0,0,0,0h0s0,0,0,0c0,0,0,0,0,0s0,0,.2.1c0,0,0,0,0,0,0,0,0,0,0,0,0,0,0,.1,0,.1,0,0-.2,0-.2,0,0,0-.2,0-.2,0,0,0,0,0,0,0,0,0,0,0,0,0h0s0,0,0,0c0,0,0,0,0,0s0,0,0,0c0,0,0,0,0,0,0,0,0,0,0,0s0,0,0,0c0,0,0,0,0,0,0,0,0,0,0,0h0s0,0,0,0c0,0,0,0,0,0h0c0,0,0,0,.1,0t0,0s0,0,0,0h0c0,0,0,0,0,0,0,0,0,0,0,0,0,0,0,0,0,0,0,0,0,0,0,0h0s0,0,0,0,0,0,0,0h0s0,0,0,0c0,0,0,0,0,0,0,0,0,0,0,0,0,0,0,0,0,0,0,0,0,0,0,0h0s0,0,0,0h0s0,0,0,0c0,0,0,0,0,0,0-.1.1,0,.2,0h0s0,0,0,0c0,0,0,0,0,0h0s.1,0,.1,0h0s0,0,0,0h0c0,0,0,0,0,0,.4,0,.2-.2.7-.1,0,0,0,0,0,0,0,0,0,.1,0,.1,0,0,0,0,0,0h0s0,0,0,0c0,0,0-.1-.2,0,0,0,0,0,0,0,0,0,0,0,0,0,0,0,0,0,0,0h0s0,0,0,0,0,0,0,0c0,0,0,0,0,0,0,0,0,0,0,0,0,0,0,0,0,0,0,0,0,0,0,0,0,0,0,0,0,0h0s0,0,0,0h0s0,0,0,0h0s0,0,0,0c0,0,0,0,0,0,0,0,0,0,0,0h0s0,0,0,0c0,0,0,0,0,0h0s0,0,0,0c0,0,0,0,0,0h0s.1,0,.1,0c0,0,0,0,0-.1,0,0,0,0,0,0,0,0,0,0,.2,0,.1,0,.1,0,.2,0,0,0,.1,0,.1,0s0,0,0,0c0,0,0,0,0,0s0,0,0,0,0,0,0,0c0,0,0,0,0,0,0,0,0,0,0,0h0c0,0,0,0,0,0h0s0,0,0,0c0,0,0,0,0,0,0,0,0,0,0,0,0,0,0,0,0,0h0s0,0,0,0h0s0,0,0,0h0s0,0,0,0c0,0,0,0,0,0t0,0c0,0,0,0,0,0,0,0,0,0,0,0s0,0,0,0h0s0,0,0,0c0,0,0,0,0,0h0s0,0,0,0c0,0,0,0,0,0,0,0,0,0,0,0,0,0-.1,0-.3,0,.2,0,.4,0,.4,0M23.5,14.2s0,0,0,0c0,0,0,0,0,0s0,0,0,0M23.4,14.2s0,0,0,0,0,0,0,0c0,0,0,0,0,0M23.3,14.4s0,0,0,0,0,0,0,0c0,0,0,0,0,0,0,0,0,0,0,0,0,0,0,0,0,0,0,0,0,0,0,0,0,0,0,0,0,0h0s0,0,0,0h0s0,0,0,0,0,0,0,0c0,0,0,0,0,0,0,0,0,0,0,0h0c0,0,0,0,0,0,0,0,0,0,0,0M28.8,16.3h0s0,0,0,0c0,0,0,0,0,0,0,0,0,0,0,0,0,0-.1,0-.3,0,0,0,0,0,0,0,.1,0,.4,0,.4-.1s0-.1-.3-.1-1,0-1,0,.3,0,.4,0c0,0,0,0,0,0,.3,0,.7-.1.9,0-.3,0-.4,0-.7,0,.1,0,.3,0,.3,0-.1,0-.4,0-.5,0,0,0,0,0,0,0-.2,0-.5,0-.5.1,0,.2.9.1,1.1.1s.3,0,.3,0c0,0-.2,0-.3,0-.2,0-1-.1-1.3,0,0,0,0-.1,0-.2,0,0,0,0,0,0,0,0,0,0,0,0,0,0,0,0,0,0h0c0,0,0,0,0,0,0,0,0,0,0,0s0,0,0,0c0,0,0,0,0,0,0,0,0,0,0,0,0,0,0,0,0,0,0,0,0,0,0,0t0,0s0,0,0,0c0,0,0,0,0,0h0c0,0,0,0,0,0h0s0,0,0,0c0,0,0,0-.1-.1,0,0,0,0,0-.1s0,0,0-.1c0,0,0,0,0,0,0,0,0,0,0,0,0,0,0,0,0,0,0,0,0,0,0,0,0,0,0,0,0,0h0c0,0,0,0,0,0,0,0,0,0,0,0h0s0,0,0,0c0,0,0,0,0,0s0,0,0,0c0,0,0,0,0,0s0,0,0,0h0c0,0,0,0,0,0h0s0,0,0,0c0,0,0,0,0,0h0s0,0,0,0h0c0,0,0,.1,0,.1,0,0,0,0,0,0,0,0,0,0,0,0,0,0,0,.1.1.1h0s0,0,0,0c0,0,0,0,0,0h0s0,0,0,0c0,0,0,0,0,0s0,.1.2.2c0,0,0,0,0,0,0,0,0,0,0,0h0s0,0,0,0-.1,0-.1,0c0,0-.2,0-.2,0,0,0,0,0,0,0,0,0,0,0,0,0h0s0,0,0,0c0,0,0,0,0,0h0s0,0,0,0c0,0,0,0,0,0s0,0,0,0c0,0,0,0,0,0,0,0,0,0,0,0h0s0,0,0,0c0,0,0,0,0,0h0c0,0,0,0,0,0t0,0s0,0,0,0h0c0,0,0,.1,0,0,0,0,0,0,0,0,0,0,0,0,0,0,0,0,0,0,0,0h0s0,0,0,0,0,0,0,0h0s0,0,0,0c0,0,0,0,0,0,0,0,0,0,0,0,0,0,0,0,0,0,0,0,0,0,0,0h0s0,0,0,0h0s0,0,0,0c0,0,0,0,0,0,0-.1,0,0,.1-.1h0s0,0,0,0c0,0,.1,0,.1,0s0,0,0,0c0,0,0,0,0,0,.4,0,.2-.2.7-.1,0,0,0,0,0,0,0,0,0,.1,0,.1,0,0,0,0,0,0h0s0,0,0,0c0,0,0-.1-.2,0,0,0,0,0,0,0,0,0,0,0,0,0,0,0,0,0,0,0h0s0,0,0,0,0,0,0,0c0,0,0,0,0,0,0,0,0,0,0,0,0,0,0,0,0,0,0,0,0,0,0,0,0,0,0,0,0,0h0s0,0,0,0h0s0,0,0,0h0c0,0,0,.1,0,0,0,0,0,0,0,0h0s0,0,0,0h0s0,0,0,0h0s0,0,0,0c0,0,0,0,0,0h0s.1,0,.1,0c0,0,0,0,0-.1,0,0,0,0,0,0,0,0,0,0,.2,0,.1,0,.1,0,.2,0,0,0,.1,0,.1,0s0,0,0,0c0,0,0,0,0,0s0,0,0,0,0,0,0,0c0,0,0,0,0,0,0,0,0,0,0,0h0c0,0,0,0,0,0h0s0,0,0,0h0s0,0,0,0c0,0,0,0,0,0h0s0,0,0,0h0s0,0,0,0h0s0,0,0,0c0,0,0,0,0,0,0,0,0,0,0,0,0,0,0,0,0,0,0,0,0,0,0,0s0,0,0,0h0s0,0,0,0c0,0,0,0,0,0h0ZM27,15.9s0,0,0,0c0,0,0,0,0,0,0,0,0,0,0,0ZM27,15.8s0,0,0,0c0,0,0,0,0,0,0,0,0,0,0,0h0ZM26.9,16s0,0,0,0,0,0,0,0,0,0,0,0c0,0,0,0,0,0,0,0,0,0,0,0s0,0,0,0h.1s0,0,0,0h0s0,0,0,0,0,0,0,0c0,0,0,0,0,0s0,0,0,0h0c0,0,0,0,0,0,0,0,0,0,0,0h0ZM26.8,15.9h0ZM26.8,15.8s0,0,0,0c0,0,0,0,0,0h0ZM27.7,17s0,0,0,0c.3,0,.7-.1.8,0-.2,0-.4,0-.6,0,.1,0,.3,0,.3,0-.1,0-.4,0-.5,0,0,0,0,0,0,0-.2,0-.3,0-.3.1,0,.2.6,0,.8,0s.2,0,.2,0c0,0-.2,0-.3,0-.2,0-.7,0-1,0,0,0,0-.1,0-.2,0,0,0,0,0,0,0,0,0,0,0,0,0,0,0,0,0,0h0c0,0,0,0,0,0,0,0,0,0,0,0h0s0,0,0,0c0,0,0,0,0,0,0,0,0,0,0,0,0,0,0,0,0,0,0,0,0,0,0,0,0,0,0,0,0,0t0,0s0,0,0,0h0s0,0,0,0c0,0,0,0-.1,0,0,0,0,0,0,0s0,0,0-.1,0,0,0,0c0,0,0,0,0,0,0,0,0,0,0,0,0,0,0,0,0,0,0,0,0,0,0,0h0s0,0,0,0c0,0,0,0,0,0h0s0,0,0,0c0,0,0,0,0,0s0,0,0,0c0,0,0,0,0,0,0,0,0,0,0,0h0c0,0,0,0,0,0h0s0,0,0,0c0,0,0,0,0,0h0s0,0,0,0c0,0,0,0,0,0h0c0,0,0,0,0,.1t0,0c0,0,0,0,0,0,0,0,0,.1.1,0h0s0,0,0,0c0,0,0,0,0,0h0s0,0,0,0c0,0,0,0,0,0s0,0,0,0c0,0,0,0,0,0h0s0,.1,0,.1-.1,0-.1,0c0,0-.1,0-.2,0,0,0,0,0,0,0,0,0,0,0,0,0h0s0,0,0,0c0,0,0,0,0,0,0,0,0,0,0,0,0,0,0,0,0,0,0,0,0,0,0,0h0s0,0,0,0c0,0,0,0,0,0h0s0,0,0,0c0,0,0,0,0,0h0c0,0,0,0,0,0h0s0,0,0,0h0c0,0,0,0,0,0,0,0,0,0,0,0,0,0,0,0,0,0,0,0,0,0,0,0h0s0,0,0,0,0,0,0,0h0s0,0,0,0c0,0,0,0,0,0,0,0,0,0,0,0,0,0,0,0,0,0,0,0,0,0,0,0h0s0,0,0,0h0s0,0,0,0c0,0,0,0,0,0,0-.1,0,0,.2-.1h0s0,0,0,0c0,0,.1,0,.2-.1,0,0,0,0,0,0,0,0,0,0,0,0,0,0,0,0,0,0,.2,0,0-.2.4-.1,0,0,0,0,0,0,0,0,0,.1,0,.1,0,0,0,0,0,0h0s0,0,0,0c0,0,0-.1-.1,0,0,0,0,0,0,0,0,0,0,0,0,0,0,0,0,0,0,0h0s0,0,0,0,0,0,0,0c0,0,0,0,0,0,0,0,0,0,0,0,0,0,0,0,0,0,0,0,0,0,0,0,0,0,0,0,0,0h0s0,0,0,0h0s0,0,0,0h0s0,0,0,0c0,0,0,0,0,0,0,0,0,0,0,0,0,0,0,0,0,0,0,0,0,0,0,0h0s0,0,0,0c0,0,0,0,0,0h0s0,0,.1,0c0,0,0,0,0-.1,0,0,0,0,0,0,0,0,0,0,.1,0,.1,0,.2,0,.2,0,0,0,.1,0,.1,0s0,0,0,0c0,0,0,0,0,0,0,0,0,0,0,0s0,0,0,0c0,0,0,0,0,0,0,0,0,0,0,0h0c0,0,0,0,0,0h0s0,0,0,0c0,0,0,0,0,0,0,0,0,0,0,0,0,0,0,0,0,0h0s0,0,0,0c0,0,0,0,0,0,0,0,0,0,0,0h0s0,0,0,0c0,0,0,0,0,0h0c0,0,0,0,0-.1,0,0,0,0,0,0,0,0,0,0,0,0h0s0,0,0,0c0,0,0,0,0,0h0s0,0,0,0c0,0,0,0,0,0,0,0,0,0,0,0,0,0-.2,0-.3,0,0,0,0,0,0,0,.1,0,.4,0,.4-.1s0-.1-.3-.1-.8,0-.8,0c0,0,.2,0,.3,0M26.9,16.9s0,0,0,0c0,0,0,0,0,0,0,0,0,0,0,0M27,17.1s0,0,0,0c0,0,0,0,0,0,0,0,0,0,0,0,0,0,0,0,0,0,0,0,0,0,0,0s0,0,0,0c0,0,0,0,0,0,0,0,0,0,0,0s0,0,0,0,0,0,0,0c0,0,0,0,0,0,0,0,0,0,0,0,0,0,0,0,0,0h.1s0,0,0,0c0,0,0,0,0,0M27,17s0,0,0,0c0,0,0,0,0,0,0,0,0,0,0,0M27.4,18s0,0,0,0c.3,0,.7-.1.8,0-.2,0-.4,0-.6,0,.1,0,.3,0,.3,0-.1,0-.4,0-.5,0,0,0,0,0,0,0,0,0-.2,0-.2.1,0,.2.8,0,.8.1s-.1.1-.4.1-.4-.1-.8,0h0c0,0,0-.1,0-.2,0,0,0,0,0,0,0,0,0,0,0,0,0,0,0,0,0,0,0,0,0,0,0,0,0,0,0,0,0,0,0,0,0,0,0,0,0,0,0,0,0,0,0,0,0,0,0,0,0,0,0,0,0,0,0,0,0,0,0,0,0,0,0,0,0,0t0,0s0,0,0,0c0,0,0,0,0,0,0,0,0,.1,0,.2,0,0-.1-.2-.2-.2,0,0,0,0,0,0s0,0,0-.1,0,0,0,0c0,0,0,0,0,0,0,0,0,0,0,0t0,0s0,0,0,0h0s0,0,0,0c0,0,0,0,0,0h0s0,0,0,0c0,0,0,0,0,0h0c0,0,0,0,0,0h0c0,0,0,0,0,0h0s0,0,0,0c0,0,0,0,0,0h0s0,0,0,0h0s0,0,0,0h0s0,0,0,0c0,0,0,0,0,0,0,0,0,0,0,0,0,0,0,.1,0,0h0s0,0,0,0c0,0,0,0,0,0h0s0,0,0,0c0,0,0,0,0,0s0,0,0,.1c0,0,0,0,.1,0,0,0,0,0,0,0s-.1,0-.1,0,0,0,0,0h0s0,0,0,0c0,0,0,0,0,0,0,0,0,0,0,0,0,0,0,0,0,0h0s0,0,0,0c0,0,0,0,0,0,0,0,0,0,0,0,0,0,0,0,0,0,0,0,0,0,0,0s0,0,0,0c0,0,0,0,0,0h0s0,0,0,0c0,0,0,0,0,0,0,0,0,0,0,0t0,0s0,0,0,0t0,0s0,0,0,0c0,0,0,0,0,0h0c0,0,0,0,0,0,0,0,0,0,0,0,0,0,0,0,0,0,0,0,0,0,0,0h0s0,0,0,0,0,0,0,0h0s0,0,0,0c0,0,0,0,0,0,0,0,0,0,0,0,0,0,0,0,0,0,0,0,0,0,0,0h0s0,0,0,0h0s0,0,0,0c0,0,0,0,0,0,0,0,0,0,.1-.1t0,0s0,0,0,0c0,0,0,0,0,0s0,0,0-.2h0c0,0,.1,0,.2,0,0,0,0,0,0,.1s0,0,0,.1h0s0,0,0,0c0,0,0-.1-.1,0,0,0,0,0,0,0,0,0,0,0,0,0,0,0,0,0,0,0h0s0,0,0,0h0s0,0,0,0c0,0,0,0,0,0,0,0,0,0,0,0,0,0,0,0,0,0,0,0,0,0,0,0h0s0,0,0,0h0s0,0,0,0h0c0,0,0,0,0,0,0,0,0,0,0,0t0,0s0,0,0,0h0s0,0,0,0t0,0s0,0,0,0c0,0,0,0,0,0h0s0,0,0,0,0,0,0-.1c0,0,0-.2,0-.2,0,0,.2,0,.3,0,0,0,.1,0,.1,0,0,0,0,0,0,0,0,0,0,0,0,0h0s0,0,0,0c0,0,0,0,0,0,0,0,0,0,0,0,0,0,0,0,0,0h0s0,0,0,0h0s0,0,0,0h0s0,0,0,0c0,0,0,0,0,0,0,0,0,0,0,0,0,0,0,0,0,0h0s0,0,0,0c0,0,0,0,0,0,0,0,0,0,0,0,0,0,0,0,0,0h0c0,0,0,0,0,0,0,0,0,0,0,0,0,0,0,0,0,0h0s0,0,0,0c0,0,0,0,0,0h0s0,0,0,0c0,0,0,0,0,0,0,0,0,0,0,0,0,0-.1,0-.1-.1h0c.3,0,.4,0,.4-.2,0-.2-.8,0-.8-.1,0-.1,0-.1,0-.1M26.9,18.1s0,0,0,0c0,0,0,0,0,0,0,0,0,0,0,0M26.8,18s0,0,0,0c0,0,0,0,0,0,0,0,0,0,0,0M26.7,18.2s0,0,0,0,0,0,0,0,0,0,0,0c0,0,0,0,0,0,0,0,0,0,0,0,0,0,0,0,0,0h0q0,0,0,0h0s0,0,0,0,0,0,0,0c0,0,0,0,0,0,0,0,0,0,0,0h0c0,0,0,0,0,0,0,0,0,0,0,0M14.7,4.4c0-.1,0-.2-.2-.2h0c-.1,0-.2,0-.2.2s0,.2.2.2c.1,0,.2,0,.2-.2M14.7,3.9c0-.1,0-.2-.2-.2-.1,0-.2.1-.2.2,0,0,0,.2.2.2.1,0,.2,0,.2-.2h0M14.8,3.6c.1,0,.2,0,.2-.2s0-.2-.2-.2h0c-.1,0-.2.1-.2.2,0,.1,0,.2.2.2M15.3,3.6c.1,0,.2,0,.2-.2s0-.2-.2-.2h0c-.1,0-.2.1-.2.2,0,.1,0,.2.2.2M17.5,3.3c0,0,.2,0,.3,0,0,0,0-.2,0-.3h0c0,0-.2,0-.3,0,0,0,0,.2,0,.3M17.4,2.9c0,0,0-.2,0-.3,0,0-.2,0-.3,0,0,0,0,.2,0,.3s.2,0,.3,0M16.9,2.8c0,0,0-.2,0-.3,0,0-.2,0-.3,0s0,.2,0,.3c0,0,.2,0,.3,0M16.5,3.1c0,0,0-.2,0-.3s-.2,0-.3,0c0,0,0,.2,0,.3,0,0,.2,0,.3,0M15.3,2.8v.3c.1,0,.3-.2.3-.2,0,0,0,0,0,0,0,.1,0,.3,0,.4s.1.2.2.2.2-.1.2-.2,0-.2-.1-.2c0,0-.2-.2-.3-.3,0,0,0,0,0,0h.3s-.1-.3-.1-.3l-.2.2s0,0,0,0v-.3s-.3.1-.3.1l.2.3s0,0,0,0h-.3ZM17.5,3.4c0,.1.1.2.1.3,0,0-.1,0-.2-.2v.4c0,0,.1-.1.2-.2,0,.3-.1.4-.2.4-.1,0-.2,0-.2-.1h0c0-.1,0-.2.2,0,0-.3-.2-.3-.3-.1.1-.3,0-.4-.2-.6-.1.2,0,.4,0,.6-.2,0-.3,0-.2.3,0-.2.2-.1.2,0,0,.1,0,.3-.3.3-.3,0-.4,0-.4-.2,0,0,.2,0,.3,0v-.4c-.2.1-.3.2-.4.3,0-.1,0-.4,0-.4l-.5.2s.2.1.3.2c-.1,0-.2,0-.4,0l.2.4c0-.2.1-.3.2-.3,0,.1.1.3-.1.5-.2,0-.4,0-.4,0,0-.1,0-.3.1-.2,0-.2-.2-.2-.3,0,0-.3,0-.4-.3-.5,0,.3,0,.4.3.5-.1,0-.3.1-.1.3,0-.2.1-.2.2,0,0,0,0,.2,0,.3h0c0,0-.3,0-.5-.1,0,0,.1,0,.2,0l-.3-.3c0,.1,0,.2,0,.3,0,0,0-.1-.1-.3l-.2.2c.2.1.4.3.7.7.3-.2.8-.4,1.2-.6s.9-.3,1.2-.4c0-.5,0-.8,0-1h-.3ZM21.6,15.5c0-.2-.3-.4-.3-.7,0-.3,0-.6-.3-1s-1.5-1.6-1.8-2c0,0,.3,0,.5.1.1.1.4.3.6.6.3-.8.7-1.3,1.2-1.9,0,0,.1-.1.2-.2-.2,0-.5.1-.7.2,0-.3,0-.6-.2-.8,0-.5,0-1-1-1.7.5.1.9.6,1.3.2-.4,0-.4-.8-1.7-1.5.5,0,.9.8,1.5.3-.6,0-.7-1.1-1.7-1.3.3,0,.7.2,1-.2-.3,0-.5-.2-.9-.3.1-.4.1-.7,0-1-.3,0-.5,0-.7.3,0-.2-.3-.3-.5-.2,0,.1,0,.3,0,.3-.2,0-.8.2-1.2.4-.5.2-1,.5-1.1.6,0,0-.2,0-.2-.2-.2.1-.3.3-.2.5-.3,0-.5,0-.8.3,0,.3.2.6.6.7-.6.6,0,1.2-.6,1.7.8,0,.6-1,1-1.2,0,.7-.5.9-.5,1.7s.3.9,0,1.2c.6-.2.5-1.6.9-2,0,.2,0,.5,0,.7-.2.7,0,1.6-.3,1.9.7,0,.7-1.1,1.3-1.5-.5.9-.9,2.9-1.6,3.9-1.1,1.5-1.8,3.3-2.8,3.3s-.8-.3-.8-.8c0-1.7,2.9-2.9,2.9-4.7s-.7-1.1-1.1-1.1-.6.1-.9.4c-.1,0-.2,0-.3,0-1,0-.8,1.9-1.7,1.8.4.2,1-.2,1.3-.7-.1,1.2-1.9.9-1.7,2.3.2-1.1,3-1,3-2.7s0-.4-.2-.5c.2-.1.4-.2.6-.2.3,0,.6.2.6.7,0,1.5-2.9,2.8-2.9,4.7s0,.6.2.8c-.2,0-.4,0-.6-.2,0,.5.7.8,1.1.5,0,0,.2,0,.3,0-.1.4-.6.5-.8.5.7.6,1.9-.2,1.9-.8.6-.5.9-1.2,1.3-1.7,0,.1,0,.2,0,.3-.4.8-.8,1.4-.9,2.4,0,.8-.5,1.6-1.1,1.6s-.3-.2-.4,0c-.2.2,0,.3,0,.5,0,.2-.5.5-.5,1.2s.2.7.1.9c.2,0,.4-.4.5-.8.2,1-.4.9,0,1.8,0-.3.3-.4.5-.3s0,.2,0,.3-.3.8.3.7c-.1,0-.1-.2.2-.3.4,0,.5.1.9.1s.3-.3.5-.3.2.2.1.3c.3,0,.4-.3.4-.5s-.2-.3,0-.4c.1,0,.5,0,.4.3.2,0,.3-.2.3-.4s-.3-.4-.5-.3c0-.2-.3-.2-.5-.2-.5,0-.4.4-.7.4-.5,0-1-.7-1-1.8s.7-.8,1.1-1,1.3-.7,1.8-1.5c.4-.6.4-1.3.3-2.2.7.4.7.9.7,1.3s-.3.7-.5.8c-.2,0-.2,0-.3.1,0,.1,0,.2.1.3.2.1.2.3.3.6,0,.2.3.6.7.9,0-.1,0-.4,0-.7.5.3.1,1.3,1.1,1.3-.2-.1-.1-.4,0-.4s.2,0,.4.3c.2.3.1.2.6.2s.3-.2.5-.2.2.3,0,.5c.4-.1.5-.4.4-.8.4-.2.6,0,.6.3.4-.4,0-.8-.3-.8,0-.1-.1-.3-.3-.3-.1,0-.3,0-.5,0-.2,0-.3.3-.5.3-.6,0-1.8-1.1-1.8-1.6s1.2-.8,1.2-1.5-1-1.3-1.8-1.9c.3-.3,1.1-.4,1.6-.2,0-.3.2-.2.3-.7.2.4,0,.8.2.9.1-.2.5-.2.5-.7.1.3-.1.8.1,1,0-.3.2-.3.3-.3s.2,0,.2.2c0,.4-.5.2-.5.7s.2.3.2.4-.2.3-.4.1c0,.2.2.3.4.3s.4-.2.5-.4c.1.3,0,.6-.2.6.2.1.7,0,.7-.6.3,0,.4.2.3.6.2,0,.5-.2.5-.4s-.2-.3-.1-.5M16.1,6.7c-.3,0-.3-.2-.7-.3.3,0,.7-.2,1.1-.4,0,.3,0,.7-.4.7M18,8.7c-.3.1-.6-.1-.7-.4s-.1-.4,0-.5c.1-.1.2-.3.1-.4-.1-.2-.3-.1-.6,0,.1-.2.1-.3,0-.3-.2,0-.2.3-.3.3-.1,0,0-.2,0-.3s0-.2.2-.2l1-.4c.1,0,.2,0,.3,0,0,0,.2.1.2.2,0,0-.3-.1-.4,0-.1,0,0,.2.2.3-.2.1-.4.2-.4.4,0,.2.2.2.4.2s.2.2.3.4c0,.2.1.6-.3.7M18.1,5.9c-.3.2-.6,0-.8-.3.4-.1.8-.3,1.1-.5-.3.4,0,.6-.3.7M40.2,20.2c0,.5.4.8.8.8.4,0,.8-.4.8-.8,0-.5-.4-.8-.8-.8-.5,0-.8.4-.8.8M40.4,20.2c0-.3.3-.6.6-.6s.6.3.6.6-.3.6-.6.6c-.3,0-.6-.3-.6-.6M37.2,21c-.1,0-.2.2-.2.3,0,.1,0,.3.1.4.1.1.2.2.4.2.2,0,.3,0,.5,0s.2-.2.3-.3c0-.3-.2-.6-.5-.6-.2,0-.4,0-.5,0M37.5,21.7c-.2,0-.4-.2-.4-.4,0,0,0-.1.1-.2,0,0,.2,0,.4,0,.2,0,.4.2.4.3h0c0,.2-.2.3-.5.3M32.7,9.5c-.3.2-.3.5-.2.7h0c.2.2.5.2.8,0,.1-.1.2-.3.3-.4,0-.1,0-.2,0-.3s-.2-.1-.3-.2c-.2,0-.3,0-.5.1M32.6,9.9c0-.1,0-.2.2-.3,0,0,.2-.1.3,0,0,0,.1,0,.2,0,0,0,0,.1,0,.2,0,.1,0,.2-.2.3-.2.1-.4.1-.5,0,0,0,0,0,0-.1M36.2,19.6c-.1.1-.2.3-.2.5h0c0,.2,0,.4.2.5,0,0,.2.1.3.1s.2,0,.3-.1c.1-.1.2-.3.2-.5s0-.3-.1-.5-.2-.2-.4-.2c-.1,0-.3,0-.3.1h0ZM36.5,20.5h0c0,0-.1,0-.2,0,0,0-.1-.2-.1-.3,0-.1,0-.3.1-.3s.1,0,.2,0c.2,0,.3.2.3.4s0,.3-.1.3c0,0-.1,0-.2,0h0ZM36.5,20.7h0ZM32.2,13c-.1,0-.2.1-.3.2-.1.3,0,.6.3.7.2,0,.4,0,.5,0,.1,0,.2-.1.3-.2s0-.2,0-.4c0-.2-.2-.3-.4-.4-.2,0-.4-.1-.5,0M32.4,13.8c-.2-.1-.3-.3-.3-.5,0,0,.1-.1.2-.1.1,0,.2,0,.4,0,.1,0,.2.2.3.3,0,0,0,.1,0,.2,0,0-.1.1-.2.1-.1,0-.3,0-.4,0"></path>
  <path class="st0" d="M40.8,12.1c.3.7.8,1,1.2.8-.9-.1-.2-1.7-1.3-1.7s-.1,0-.2,0c-.2-.2-.4-.3-.8-.3-.5,0-1.3.5-1.3,1.5,0,2.1,2.5,2.3,2.5,4.2s-.4.9-.9.9-.7-.5-1.1-1.2c-.2-.3-.5-.8-.9-1.3.1,0,.2.1.4.1.1,0,.3,0,.3-.1,0,0,.1-.2.1-.3h0c0-.2,0-.4-.2-.5-.1-.1-.3-.2-.5-.2s-.3,0-.3.1c0,0-.1.2-.1.3h0c0,0,0,.2,0,.2-.5-.7-1-1.4-1-1.7s.2-.6.5-1h0c0,0,0,0,0,0,0-.1.3-.3.7-.8h0s.1-.1.1-.1l-.3-.2c0-.2.1-.3.2-.5,0,.3.3.6.5.5-.2-.3.2-.8,0-1.7.2.3.5.5.7.4-.5-.5.2-1.2-.5-2.2.2,0,.4,0,.5,0-.7,0-.3-.9-1.5-1.2.3,0,.5-.2.4-.4-.3.2-.6-.4-1.5-.4,0-.4-.4-.8-.8-.9,0,.3,0,.5,0,.8l-3.2-3.1c0,0-.1-.1-.2,0s0,0,0,.2l2.7,3.5c-.2,0-.4.2-.6.2-.1,0-.2.2-.2.4-.5.3-1,.6-1.2.8-.2.2-.3.2-.2.5,0,.1-.1.5.3.2.3-.2.9-.5.9-.3,0,.1-.2.2-.5.3-.2,0-.4.2-.4.3,0,0,.2,0,.2,0,0,0,0,.2.2.2s.2-.2.3-.1,0,.4,0,.5c.3,0,.5-.3.5-.6,0-.2,0-.3.1-.3,0,0,.1.3,0,.4.2,0,.3-.3.3-.7,0,0,.2-.1.2-.1.1,0,.3.3.6.3.5,0,.9-.4.9-.7,0-.2,0-.3,0-.5.2.2.3.4.3.6,0,.8-1.4,1.1-1.9,1.7,0,0,0,0,0,0l-.6-.3h0c-.1.5-.2.9-.3,1.2h0c0,.1,0,.1,0,.1-.4.5-.7,1.1-.8,1.7-.2-.2-.3-.3-.5-.4,0,0,0-.1,0-.2,0-.2,0-.3-.1-.5,0,0-.2-.1-.3-.1s-.2,0-.3.1c0,0,0,0,0,0,0,0,0,0,0,0-.2-.2-.5-.4-.6-.5,0,0-.1-.1-.3-.1h-.3c0,0-.1,0-.3.2,0,0-.2.2-.4.3,0,0,.2.2.2.3,0,0,0,0,.1.1h.1c0-.1.2-.1.2-.1s.2,0,.3.2c.3.4.7.8,1,1.2,0,0,0,0-.1,0-.2,0-.6,0-.8,0-.2,0-.2,0-.3.1,0,0-.1.2-.2.2s-.1.2,0,.4c.2.3.7,1.2.8,1.5.2.4.3.4.6.6s.8.4.9.5v-.3c0,0-.3-.2-.5-.2-.1,0-.1,0,0,0s.5.1.7.2c0-.3-.3-.6-.5-.8-.2,0-.4,0-.5,0,0,0,0,.1-.1.1h0c0,0-.1,0-.1-.1,0,0,.2-.1.1-.3,0-.2-.2-.2-.4-.2-.2-.3-.4-.7-.5-.8,0-.2,0-.2,0-.3.2-.1.5,0,1.1.1.2,0,.5,0,.8,0,0,.8.4,1.5,1.4,1.7.5.1,1,.5,1.2,1-2.1,0-2.4.8-2.4,1.6s.7.8.7,1.5-1.8.8-2.3.9c-.5,0-.7.2-.9.4-.2.2-.4.4-.8.8,0,0,.2,0,.3,0l.3-.4c0-.1.1-.2.2-.2,0,0,0,.1,0,.3l-.2.4c1,0,1.1-.3,1.1-.5s-.3-.3-.1-.4.3,0,.4.1.2.3.4.1c0,0,2.3-.9,2.5-1.1.3-.1.2-.2,0-.4-.2-.1-.2-.4-.2-.6,0-.7.4-.9,1.1-.9,0,.1,0,.2,0,.3,0,1.1,1.6,2.1,2.1,2.1s.5-.1.5.5c0,.5.1.8,0,1.4,0,.5-.2.6-.6.9-.3.2-.6,1-.8,1.1.1,0,.3.1.4-.2.1-.3.2-.5.3-.6-.1.3-.2.8-.3.9.4,0,1.1-.3,1.1-.6s-.2-.3-.2-.5.1-.2.2-.2.3.1.3.2c.2,0,.3-.3.3-.7s0-.3,0-.5c0,0,0,0,0,0,0,.1.2.2.4.2.1,0,.3,0,.5-.1.2-.1.3-.3.3-.4,0,0,0,0,0-.1,0,0,0-.2,0-.3,0-.1-.2-.2-.3-.2-.2,0-.4,0-.5.1-.1,0-.3.2-.3.4,0-.6,0-1.1,0-1.3,0-.3,0-.5,0-.5-.1,0-.2.1-.4.1s-.6-.4-.6-.9.5-1.1.5-1.7c0-.2.1-.3.2-.1,0,.2.2.5.5.7-.1.8.7,1.6,1.5,1-.4,0-.6-.3-.8-.6,0,0,.1,0,.2,0h.1c.3.3,1.1.3,1.3-.5-.1.2-.4.3-.6.3.3-.2.5-.6.5-1,0-2-2.4-2.3-2.4-4.1s.6-1.1,1-1.1.3,0,.4.1c-.2.2-.2.4-.2.7,0,1.5,2.4,1.4,2.5,2.1.3-1.1-1.5-.7-1.5-2.2h0ZM34.5,6.6c.1-.2,0-.5.4-.5s.4.2.6.3c-.4,0-.7.1-1,.3ZM32.3,11c0,.1,0,.2-.1.3,0,0,0,0-.2,0-.1,0-.2-.2-.2-.3h0c0-.1,0-.3.1-.3s.1,0,.2,0,.1,0,.1,0c0,0,.1.2,0,.3h0ZM39.3,21.2c0-.1.1-.2.2-.3.1,0,.3-.1.4,0,0,0,.1,0,.2.1h0c0,0,0,.1,0,.2,0,.1-.1.2-.2.3-.2.1-.4.1-.5,0,0,0,0-.1,0-.2h0ZM37.9,14.4c0,0,0-.1,0-.2,0,0,.1,0,.2,0,.1,0,.2,0,.3.2,0,.1.1.2.1.3s0,.1,0,.2h0c0,0-.1,0-.2,0-.1,0-.2,0-.3-.2,0,0-.1-.2-.1-.3h0ZM33.9,9.9c.1-.4.3-1.1.3-1.1h.4c-.1.2-.2.3-.4.4,0,0,.2,0,.3,0v.4c-.2,0-.3-.2-.4-.2,0,.3.1.4.3.5.2.1.4.1.4,0,0-.1,0-.3-.3-.2,0-.2,0-.3.2-.3s.2,0,.2.2c0-.3.1-.6.4-.7.1.3,0,.5-.2.7.1,0,.3,0,.3,0,0,.1,0,.3-.1.3,0-.2-.3-.2-.3,0s0,.3.2.4c.2.1.4,0,.6-.2,0,0-.2,0-.3,0l.3-.5c0,0,0,.2.2.3,0-.1,0-.3,0-.5l.5.3c-.2,0-.3.1-.4.2.1,0,.3,0,.3,0l-.3.4c0-.1,0-.3-.1-.3-.1.2,0,.4.1.6.2.1.4.1.4,0,0-.1,0-.3-.3-.3,0-.2.1-.3.2-.3.1,0,.2.1.2.3,0-.3.2-.5.5-.5,0,.3,0,.5-.4.7.1,0,.2,0,.3,0,0,.1,0,.3-.1.3,0-.2-.3-.2-.3-.1,0,.1,0,.2.2.4.1,0,.3.2.5,0,0,0-.2-.1-.3-.1l.3-.3c0,.1,0,.3.1.3,0-.2,0-.3,0-.4l.3.3s-.5.5-.7.8l-3.4-1.9h0ZM37.2,18.2c-.1.2-.4.3-.5.1-.1-.1-.2-.3,0-.5s.4-.3.5-.2c.2.1.2.4,0,.5h0ZM38.1,16.7c-.1.2-.4.3-.5.1-.1-.1-.2-.3,0-.5s.4-.3.5-.1c.1,0,.2.3,0,.5h0Z"></path>
</svg>